<?xml version="1.0" encoding="UTF-8" standalone="no"?>
<!-- Created with Inkscape (http://www.inkscape.org/) -->

<svg
   width="1920.0001"
   height="853.58032"
   viewBox="0 0 508.00002 225.84312"
   version="1.1"
   id="svg1"
   xml:space="preserve"
   xmlns="http://www.w3.org/2000/svg"
   xmlns:svg="http://www.w3.org/2000/svg"><defs
     id="defs1"><style
       type="text/css"
       id="style1">
   <![CDATA[
    .fil0 {fill:black}
    .fil1 {fill:black;fill-rule:nonzero}
   ]]>
  </style></defs><g
     id="layer1"
     transform="translate(2.0800001e-5,-6.140938)"><g
       style="clip-rule:evenodd;fill-rule:evenodd;image-rendering:optimizeQuality;shape-rendering:geometricPrecision;text-rendering:geometricPrecision"
       id="g1"
       transform="matrix(0.0570018,0,0,0.0570018,-6.6122296,6.1266877)"><g
         id="Capa_x0020_1">
  <metadata
   id="CorelCorpID_0Corel-Layer" />
  <g
   id="_618198024">
   <path
   class="fil0"
   d="m 7464,2946 c 0,0 -1,-179 9,-220 9,-42 12,-61 5,-64 -8,-4 -53,5 -68,10 -15,5 -20,-1 -6,-11 14,-11 44,-19 61,-19 17,0 35,-3 35,34 0,38 1,73 -9,135 -10,63 -9,125 -14,141 -6,17 -13,-6 -13,-6 z m -7,570 c 0,0 -14,-240 -10,-327 5,-87 7,-133 8,-93 1,39 11,139 12,289 1,149 -10,131 -10,131 z m -50,101 c 0,0 4,32 -14,63 -17,31 7,53 36,52 28,-1 66,2 62,-26 -4,-27 -26,-34 -25,-63 2,-28 9,-35 11,-21 2,15 9,39 19,60 10,21 14,56 -29,59 -43,4 -81,9 -94,-24 -13,-33 15,-51 22,-71 7,-20 8,-29 8,-33 0,-3 4,4 4,4 z m -71,121 c 0,0 -17,14 -14,28 3,15 53,31 117,29 65,-2 91,-10 101,-24 10,-14 -4,-29 -9,-31 -5,-1 20,-5 25,9 6,14 17,62 -115,62 -132,0 -139,-43 -137,-54 2,-11 20,-22 27,-24 6,-2 5,5 5,5 z m 89,168 c 3,0 143,-13 150,-16 7,-2 -217,-5 -264,-5 -46,0 -115,-3 -194,-21 -80,-18 -81,-63 -74,-76 7,-14 36,-35 36,-35 0,0 -44,11 -50,39 -6,27 8,91 162,103 153,12 234,11 234,11 z m 241,-17 c 0,0 123,13 167,-23 43,-36 20,-80 -4,-94 -23,-14 -62,-24 -82,-27 -20,-3 63,15 86,52 24,38 5,76 -125,77 0,0 -38,9 -50,9 -12,0 8,6 8,6 z M 7313,2527 c 0,0 68,29 129,26 61,-2 102,-11 139,-38 36,-28 65,-56 65,-56 0,0 11,14 -17,33 -28,19 -51,57 -152,71 -102,14 -170,-30 -173,-34 -2,-3 9,-2 9,-2 z m 506,-190 c 0,0 170,-132 206,-163 35,-31 34,-36 35,-39 0,-2 -43,30 -64,43 -22,13 -151,119 -165,130 -14,11 -18,23 -20,27 -1,5 8,2 8,2 z m 408,-487 c 0,0 248,7 261,9 12,3 12,0 -16,21 -27,21 -226,181 -226,181 0,0 -83,-3 -110,-1 -26,2 -25,9 -48,5 -23,-4 -90,-13 -112,-13 -21,0 -33,4 -30,-3 4,-7 15,-15 21,-24 5,-9 -6,-3 31,4 36,7 113,15 146,7 34,-7 65,-51 74,-72 8,-20 9,-59 9,-78 0,-19 0,-36 0,-36 z m -49,-109 c 0,0 75,-118 84,-129 9,-11 13,-27 20,-23 7,4 35,19 112,47 77,29 116,46 174,66 58,20 152,81 190,95 37,14 117,72 125,78 8,6 1,22 -15,22 -16,0 -35,-6 -70,-18 -36,-13 -83,-37 -104,-37 -21,-1 -51,10 -61,10 -9,0 -13,-5 -16,-13 -4,-8 -23,-50 -72,-69 0,0 -21,-10 -93,-10 -72,0 -244,0 -254,-1 -11,-1 -17,-8 -17,-11 0,-3 -3,-7 -3,-7 z m -276,-62 c 0,0 28,-27 49,-24 20,3 3,35 -4,47 -6,12 -32,38 -43,43 -11,6 -31,16 -32,0 -1,-15 8,-35 14,-45 6,-10 16,-21 16,-21 z m -15,-9 c 0,0 35,-38 71,-33 35,4 19,49 13,65 -7,16 -39,52 -55,60 -16,7 -45,21 -54,0 -8,-21 0,-49 6,-63 6,-14 19,-29 19,-29 z m -7,-37 c 0,0 56,-32 144,4 88,36 135,110 153,153 19,43 27,110 21,147 -7,37 -15,71 -63,84 -49,12 -152,2 -201,-54 -48,-56 -79,-126 -89,-176 -11,-50 -7,-96 2,-119 10,-23 33,-39 33,-39 z m -88,198 40,1 c 0,0 0,-12 -5,-28 -4,-16 -18,-26 -15,-68 3,-42 14,-68 22,-78 8,-9 7,-16 7,-16 0,0 -40,-30 -49,-43 -9,-13 -10,0 -11,18 -1,17 16,84 13,134 -3,51 -2,80 -2,80 z m -395,-13 370,11 c 0,0 1,-119 -8,-193 -9,-73 -18,-79 -11,-87 6,-9 19,-7 18,5 0,12 69,56 79,63 9,6 12,7 34,-2 21,-9 61,-18 106,-13 46,6 139,84 139,84 0,0 66,-111 72,-121 6,-11 -6,-14 -12,-16 -6,-3 -132,-67 -229,-113 -97,-46 -190,-88 -210,-93 -20,-4 -52,-5 -123,53 -71,58 -138,188 -171,258 -32,69 -52,136 -56,147 -4,12 0,17 0,17 z m -61,-1 27,2 c 0,0 19,-62 32,-91 12,-30 63,-163 110,-228 47,-66 99,-114 140,-142 40,-29 71,-34 85,-34 14,0 30,-30 45,-48 15,-18 84,-100 111,-197 27,-98 16,-223 14,-328 -2,-105 -12,-165 13,-214 25,-50 74,-82 74,-82 0,0 -1,-15 -5,-22 -4,-6 -13,-6 -13,-27 0,-22 7,-181 9,-195 1,-13 -7,-21 -15,-12 -8,8 -60,84 -76,119 -16,36 -13,60 -45,222 -32,163 -76,288 -113,391 -38,102 -40,109 -71,153 -30,44 -28,55 -61,92 -32,36 -63,76 -74,109 -10,33 -39,110 -54,155 -14,46 -67,194 -93,269 -26,74 -40,108 -40,108 z m -27,99 30,-1 c 0,0 15,-57 17,-63 2,-6 -31,-4 -31,-4 0,0 -13,57 -14,61 -2,4 -2,7 -2,7 z m 27,13 -1,15 c 0,0 -10,3 -17,3 -7,0 -14,-2 -13,-7 0,-4 -1,-11 0,-13 3,-5 28,-2 31,2 z m -22,136 c 0,0 8,-23 12,-25 4,-3 17,8 14,16 -2,8 -16,15 -22,16 -5,1 -4,-7 -4,-7 z m -25,48 16,-34 c 0,0 22,7 18,32 -2,11 -21,10 -27,10 -6,-1 -7,-8 -7,-8 z m -3,51 1,-32 c 0,0 21,4 20,20 -1,17 -21,15 -21,15 z m 0,48 c 0,0 -2,-24 -2,-26 0,-3 18,-2 24,2 6,4 9,22 4,24 -4,3 -21,4 -22,3 -2,-1 -4,-3 -4,-3 z m 20,52 c 0,0 -9,-21 -9,-25 -1,-4 13,-8 22,-5 8,4 21,10 19,23 -2,14 -20,15 -24,13 -4,-1 -8,-6 -8,-6 z m 30,50 c 0,0 -20,-21 -21,-30 -1,-9 22,-8 29,-6 7,2 14,16 10,25 -5,10 -18,11 -18,11 z m 36,38 c -4,-2 -23,-19 -23,-21 0,-3 16,-11 28,-7 12,5 7,24 6,26 -1,2 -11,2 -11,2 z m 17,10 c 2,1 32,6 44,6 12,0 27,-2 28,-4 2,-3 -6,-27 -36,-30 -30,-3 -36,28 -36,28 z m 82,-15 c 0,0 -3,-21 -38,-26 -35,-6 -40,12 -40,12 0,0 0,-7 -4,-13 -5,-7 -26,-12 -31,-8 0,0 12,-14 4,-29 -7,-16 -24,-13 -24,-13 0,0 14,-12 6,-28 -8,-17 -23,-15 -24,-21 -1,-7 4,-13 2,-26 -3,-15 -7,-18 -19,-18 7,1 14,-15 14,-16 1,-10 -7,-22 -7,-22 0,0 0,-4 7,-7 7,-2 15,-14 17,-24 1,-11 -9,-27 -9,-27 15,-4 30,-19 30,-30 1,-20 -18,-20 -23,-20 -5,0 -5,-9 2,-22 6,-14 -1,-13 11,-59 13,-47 31,-100 31,-100 0,0 363,7 377,7 13,0 15,4 12,16 -2,12 -40,159 -52,171 -12,13 -38,13 -68,22 -30,8 -87,8 -127,-3 -41,-11 -73,3 -101,3 -27,0 -12,13 5,11 18,-3 47,-14 78,-8 31,5 71,34 123,25 52,-8 69,-15 73,-16 4,0 -45,83 -49,90 -4,8 -54,99 -109,143 -54,44 -67,36 -67,36 z m -477,-276 c 0,0 -33,10 -66,5 -33,-6 -65,-19 -76,-18 -11,1 -1,8 10,18 11,11 193,179 223,209 30,29 81,79 84,87 3,9 -42,-20 -82,-61 -40,-41 -187,-175 -210,-199 -24,-24 -41,-43 -47,-49 -7,-6 -20,-4 -27,-3 -8,2 -16,12 -11,15 4,4 154,144 154,144 l 270,253 c 0,0 63,64 87,84 23,21 49,52 58,75 10,22 17,55 25,110 7,56 19,177 20,222 1,45 6,205 6,260 0,56 -3,168 -5,213 -3,44 -25,163 -39,194 -13,32 -16,32 -20,40 -4,8 -10,13 -13,6 -3,-7 0,-12 5,-20 5,-8 1,-11 1,-11 0,0 -156,-7 -257,48 0,0 -114,62 -88,126 27,64 112,104 254,120 141,16 403,10 460,3 57,-7 120,-29 143,-48 22,-19 56,-40 43,-94 -14,-55 -93,-95 -176,-116 -82,-21 -147,-28 -155,-28 -8,0 -13,1 -9,6 4,5 44,45 49,51 6,6 11,20 -7,8 -19,-13 -41,-30 -52,-47 -12,-16 -27,-38 -46,-99 -19,-62 -17,-139 -18,-169 -2,-29 -4,-290 1,-401 5,-110 36,-326 47,-357 10,-31 23,-46 3,-35 -20,11 -67,18 -99,9 -32,-8 -54,-24 -31,-19 22,4 44,25 109,0 65,-25 111,-61 155,-96 44,-35 412,-323 412,-323 l 145,-107 c 0,0 -40,-1 -75,0 -35,1 -23,13 -59,10 -37,-3 -30,-11 -95,-11 -66,0 -75,9 -86,22 -10,12 -217,309 -217,309 0,0 -14,7 -8,-16 6,-22 80,-132 80,-132 l 104,-167 c 0,0 0,-10 -4,-13 -4,-2 -32,-3 -64,-3 -33,0 -63,-6 -68,-7 -4,-1 -45,89 -56,107 -11,18 -63,121 -140,173 -77,52 -150,63 -236,46 -86,-17 -177,-155 -222,-223 -45,-67 -68,-91 -74,-97 -7,-5 -10,-4 -10,-4 z m -234,-180 c 0,0 172,115 203,153 14,18 -44,1 -62,-1 -22,-3 -46,-2 -56,-1 -10,0 -19,1 -19,1 0,0 -80,-86 -83,-89 -3,-2 -16,-2 -15,5 1,7 81,87 81,87 0,0 -14,5 -19,7 -5,1 -11,10 -15,5 -4,-5 -103,-101 -103,-101 0,0 6,-10 35,-31 29,-21 53,-35 53,-35 z m 418,-44 h 132 c 0,0 -10,57 -14,72 -3,15 2,15 -15,16 -17,1 -16,3 -29,-3 -12,-6 -19,-5 -33,-12 -13,-7 -31,-29 -35,-45 -4,-16 -6,-28 -6,-28 z m -214,-306 c 0,0 3,-8 8,-12 5,-4 11,-10 6,-11 -4,-2 -18,-1 -19,3 -2,4 5,20 5,20 z m -25,25 c 0,0 12,-9 13,-17 2,-7 3,-15 -6,-10 -9,4 -10,8 -14,9 -5,2 -1,14 -1,14 z m -50,16 33,-11 c 0,0 -1,-9 -14,-11 -12,-1 -15,3 -19,8 -3,4 0,14 0,14 z m -39,26 17,-15 c 0,0 -6,-6 -13,-5 -7,1 -7,12 -7,16 -1,3 3,4 3,4 z m -36,31 16,-17 c 0,0 -9,-5 -17,-2 -7,2 -6,13 -6,15 0,3 7,4 7,4 z m -39,50 24,-30 c 0,0 -10,-4 -19,-2 -8,2 -11,13 -10,19 0,6 5,13 5,13 z m -27,39 21,-28 c 0,0 -13,-4 -22,2 -8,5 -4,18 -4,21 0,2 5,5 5,5 z m -32,38 c 0,0 17,-18 21,-23 4,-4 -15,-4 -20,1 -5,4 -5,13 -6,16 0,2 5,6 5,6 z m -35,26 c 0,0 14,-9 18,-13 3,-4 -9,-7 -15,-6 -6,1 -9,11 -10,15 0,5 7,4 7,4 z m -39,-13 c 0,0 16,13 19,12 4,-1 3,-16 -1,-18 -4,-2 -13,0 -16,1 -2,1 -2,5 -2,5 z m -105,98 c 0,0 19,-2 32,-8 12,-6 34,0 46,-6 12,-5 6,-15 28,-16 22,-1 28,-1 28,-9 1,-9 -23,-11 -29,-23 -7,-12 -9,-36 -9,-36 0,0 -32,26 -45,36 -13,10 -31,31 -39,38 -8,6 -12,24 -12,24 z m 227,-489 h 72 c 0,0 14,-38 30,-81 15,-42 33,-99 40,-117 6,-18 18,-50 18,-50 0,0 -1,0 -20,-1 -20,-1 -193,32 -205,31 -12,-2 -6,11 -6,14 0,2 25,-2 23,7 -1,9 -5,14 -8,19 -3,6 3,26 7,35 4,10 16,18 17,31 1,14 2,79 2,79 0,0 10,6 14,13 5,6 6,9 6,13 -1,4 4,2 7,3 2,2 3,4 3,4 z m -44,126 c 0,0 32,-35 41,-48 10,-13 16,-27 26,-35 10,-8 24,-22 24,-22 h -59 c 0,0 -2,-9 -5,-14 -2,-5 -6,-3 -7,-10 -1,-8 -9,-10 -9,-2 0,7 -3,51 -8,62 -5,11 -11,23 -19,26 -8,2 -12,7 -12,11 -1,5 0,12 8,17 8,5 20,15 20,15 z m -237,-162 c 1,0 2,1 2,3 0,1 -1,3 -2,3 -1,0 -2,-2 -2,-3 0,-2 1,-3 2,-3 z m 190,-97 c 0,0 1,1 1,2 0,1 -1,2 -1,2 -1,0 -1,-1 -1,-2 0,-1 0,-2 1,-2 z m 18,32 c 2,0 3,1 3,2 0,2 -1,3 -3,3 -2,0 -3,-1 -3,-3 0,-1 1,-2 3,-2 z m -14,-16 c 2,0 3,1 3,4 0,2 -1,4 -3,4 -1,0 -3,-2 -3,-4 0,-3 2,-4 3,-4 z m -18,-16 c 1,0 2,1 2,2 0,1 -1,2 -2,2 -1,0 -2,-1 -2,-2 0,-1 1,-2 2,-2 z m -14,-8 c 1,0 2,2 2,3 0,2 -1,3 -2,3 -1,0 -2,-1 -2,-3 0,-1 1,-3 2,-3 z m -91,38 c 1,0 2,1 2,1 0,1 -1,2 -2,2 0,0 -1,-1 -1,-2 z m 27,-6 c 2,0 4,1 4,3 0,3 -2,4 -4,4 -1,0 -3,-1 -3,-4 0,-2 2,-3 3,-3 z m -36,24 c 3,0 5,2 5,4 0,2 -2,4 -5,4 -2,0 -5,-2 -5,-4 0,-2 3,-4 5,-4 z m 47,-7 c 4,0 6,2 6,6 0,3 -2,5 -6,5 -3,0 -5,-2 -5,-5 0,-4 2,-6 5,-6 z m -28,32 c 1,0 2,2 2,4 0,2 -1,4 -2,4 -2,0 -3,-2 -3,-4 0,-2 1,-4 3,-4 z m -22,-4 c 2,0 4,2 4,5 0,2 -2,4 -4,4 -2,0 -4,-2 -4,-4 0,-3 2,-5 4,-5 z m -42,11 c 3,0 5,2 5,4 0,2 -2,4 -5,4 -2,0 -4,-2 -4,-4 0,-2 2,-4 4,-4 z m -54,49 c 0,0 -5,11 6,16 11,4 12,-4 14,-12 1,-9 -10,-9 -14,-9 -4,0 -6,5 -6,5 z m -37,-35 c 8,0 8,1 17,6 9,5 14,7 15,3 1,-4 0,-9 -3,-10 -3,0 -3,0 -4,-3 -1,-3 -8,-4 -15,-4 -6,-1 -17,3 -12,3 4,1 2,5 2,5 z m 206,37 c 2,0 25,3 30,-1 4,-5 2,-13 14,-13 12,0 8,2 9,-9 0,-10 -2,-10 -8,-12 -5,-1 -6,11 -14,14 -7,3 -18,-3 -21,5 -4,7 -10,16 -10,16 z m -30,5 c 5,-1 22,-16 25,-28 2,-12 14,-12 24,-11 11,1 11,-1 12,-9 1,-9 13,-11 29,-10 16,0 9,-1 10,12 1,12 7,29 1,37 -6,7 -4,18 -13,16 -10,-1 -16,7 -22,11 -5,3 -28,1 -35,-2 -8,-2 -1,-6 -12,-10 -10,-3 -13,1 -21,-1 -7,-3 2,-5 2,-5 z m 60,-74 c 0,0 1,-17 2,-21 2,-4 -22,-13 -33,-28 -11,-16 -14,-43 -14,-43 0,0 29,44 43,52 14,7 20,9 19,12 -2,3 3,11 -2,16 -6,6 -5,12 -9,14 -4,2 -6,-2 -6,-2 z m -188,-4 10,-11 c 0,0 6,17 13,9 6,-7 1,-5 18,-13 16,-8 17,-2 24,-10 7,-9 7,-7 11,-13 3,-6 6,-2 17,-4 10,-1 4,-4 -4,-10 -8,-6 -8,-17 -18,-3 -10,15 -14,8 -16,15 -1,8 0,8 -21,11 -22,2 -28,-5 -28,4 0,8 -5,9 -8,10 -3,1 -3,4 -3,12 0,8 5,3 5,3 z m -21,10 c 0,0 -2,-54 0,-62 3,-8 18,-18 28,-27 10,-8 12,-10 19,-10 8,0 50,0 54,4 4,5 9,-7 7,-11 -2,-4 -50,-3 -61,-3 -12,0 -16,-4 -22,2 -6,5 -20,26 -21,23 -1,-2 -6,-5 -4,-21 3,-17 1,-35 2,-39 0,-4 40,-43 74,-52 34,-8 90,-13 104,-13 15,0 31,20 31,20 0,0 -1,6 -11,15 -10,9 -33,28 -32,38 1,10 9,17 10,9 2,-8 14,-18 23,-26 8,-8 18,-16 20,-20 2,-4 16,19 20,30 3,12 -8,26 -13,31 -6,6 -28,6 -35,6 -8,-1 -2,14 -2,17 0,2 9,1 12,-4 2,-5 -4,-3 15,-3 19,0 23,-6 26,-9 3,-4 8,-4 11,8 3,12 6,31 8,34 3,3 16,0 16,12 1,12 6,11 7,26 1,15 0,53 0,70 0,18 -7,46 -10,64 -3,19 -17,34 -33,35 -16,0 -72,-3 -72,-3 0,0 -8,15 0,20 8,4 50,1 56,0 5,-1 14,-4 16,2 2,6 2,20 10,23 9,3 3,3 17,9 14,6 27,5 35,-3 8,-7 39,-54 62,-78 23,-23 40,-20 52,-56 13,-35 74,-204 79,-217 5,-13 6,-18 7,-30 2,-11 22,-13 8,-14 -13,-1 -105,5 -162,15 -57,11 -97,24 -97,24 0,0 -11,-11 -20,-22 -8,-12 -28,-19 -20,-21 8,-2 32,-12 63,-25 30,-14 119,-49 148,-58 28,-9 75,-19 102,-22 27,-3 47,-1 56,2 10,3 24,14 23,36 -1,23 -7,137 -35,216 -27,80 -24,224 -20,238 3,15 -16,1 -23,-6 -7,-6 -5,-19 -9,-27 -3,-8 -6,9 -6,18 0,9 -1,-1 1,18 3,19 -1,22 -9,26 -9,4 -18,9 -19,20 0,0 -31,-11 -37,8 0,0 -8,12 -14,11 -5,-1 -30,-1 -36,18 0,0 -3,15 -12,18 -8,4 -25,1 -26,21 0,0 -2,14 -7,14 -6,0 -32,-4 -32,25 0,29 2,18 -4,19 -6,1 -25,4 -21,30 0,0 -3,13 -5,13 -3,0 -27,2 -26,20 1,18 -11,11 -11,11 0,0 -17,-5 -19,8 -2,12 -12,1 -13,-5 -1,-7 -10,-7 -19,-3 -9,4 -49,26 -77,59 -28,33 -45,59 -64,67 -18,8 -130,67 -140,102 -10,36 34,-37 113,-72 79,-35 148,-38 192,-54 45,-16 162,-88 180,-94 17,-7 78,26 110,37 33,11 29,16 50,31 21,14 36,20 48,27 12,6 -1,13 -9,14 -7,1 2,7 5,12 3,5 4,14 -4,14 -8,0 4,13 -15,6 -19,-7 -21,-16 -40,-26 -19,-11 -27,-16 -35,-12 -8,3 -6,5 4,14 11,10 13,10 15,19 1,9 24,24 14,24 -10,0 -25,-9 -35,-19 -10,-9 -23,-27 -46,-33 -23,-6 -53,-14 -58,-20 -4,-6 2,-12 -13,-10 -16,2 -88,23 -151,79 -63,55 -133,103 -210,133 -77,30 -96,31 -155,31 0,0 -27,3 -30,-4 -4,-6 -7,-5 -8,-23 -1,-18 0,-61 37,-135 36,-74 90,-155 177,-258 87,-102 91,-75 102,-79 10,-3 7,-10 33,-12 26,-2 48,-4 19,-6 -29,-2 -42,-4 -54,2 -11,6 -16,15 -15,1 1,-14 4,-57 -22,-90 -27,-32 -64,-78 -64,-78 0,0 -12,4 -20,4 -9,0 -22,3 -35,-6 -12,-9 -34,-38 -38,-52 -4,-13 -8,-30 -4,-33 4,-4 10,-7 15,-2 4,6 8,12 13,12 6,0 10,-1 10,-1 z m -88,-91 c 0,0 -74,-18 -84,-66 -11,-48 37,-76 74,-68 36,8 33,44 31,51 -2,7 -10,20 -31,20 -22,0 -17,-18 -13,-20 4,-2 19,-2 22,2 3,3 5,-15 4,-21 0,-7 -16,-17 -37,-13 -22,4 -37,17 -33,43 4,25 30,38 49,46 19,8 40,11 39,19 0,7 -8,9 -11,9 -3,0 -10,-2 -10,-2 z m 70,452 c 0,0 0,-14 4,-24 5,-11 10,-21 -6,-33 -17,-11 -46,-12 -39,-45 7,-32 35,-31 53,-59 17,-28 21,-49 21,-49 0,0 7,29 3,42 -4,13 -9,23 -31,39 -21,17 -29,26 -23,41 6,15 47,9 46,37 -1,28 -8,37 -15,44 -8,7 -5,10 -10,10 -5,0 -3,-3 -3,-3 z m -136,69 c 0,0 5,23 23,19 18,-4 27,-19 27,-30 0,-12 -26,-47 -68,-30 -42,18 -66,70 -50,112 17,42 32,65 65,73 34,7 33,-1 35,-4 3,-4 56,-97 121,-173 65,-76 96,-107 104,-112 8,-6 19,-19 18,-37 0,-18 11,-48 -29,-103 -39,-54 -47,-49 -55,-44 -7,4 -32,1 -39,-9 -8,-10 -33,-39 -41,-52 -8,-13 -8,-30 -8,-40 0,-11 3,-23 13,-23 10,0 25,6 27,-3 3,-9 -2,-112 -2,-121 0,-9 9,-6 22,-19 12,-13 31,-31 72,-46 40,-15 116,-9 116,-9 0,0 16,-13 25,-28 9,-14 17,-37 17,-75 1,-38 -25,-66 -61,-84 -37,-17 -111,-14 -152,22 -41,36 -20,103 5,112 26,10 66,-21 71,-46 6,-26 -7,-19 -10,-16 -3,4 -4,11 -14,9 -10,-1 -3,-18 4,-20 6,-3 2,-10 13,-11 11,-1 32,0 22,35 -10,36 -42,68 -76,74 -34,6 -122,-15 -165,-18 -43,-2 -92,8 -106,74 -13,66 26,129 82,144 0,0 45,10 52,11 6,1 -13,11 -26,10 -13,0 -31,-5 -34,6 -2,10 -3,18 -6,24 -2,6 -6,10 -1,25 5,16 27,53 70,84 43,32 34,54 31,75 -3,20 -38,53 -60,68 -23,16 -44,46 -26,66 17,20 66,44 66,63 1,18 0,48 -11,55 -12,7 -6,4 -12,7 -7,3 -11,13 -26,15 -14,1 -32,-11 -31,-28 1,-17 8,-2 8,-2 z m -2,342 c 0,0 83,20 191,-18 108,-38 182,-115 182,-115 0,0 74,74 99,97 26,23 376,344 452,419 75,76 108,102 127,125 19,24 26,50 35,119 9,70 41,531 24,696 0,0 -7,118 -37,210 0,0 -228,-18 -349,100 0,0 -93,92 38,169 0,0 100,76 407,64 307,-12 281,12 392,-42 111,-54 112,-149 -44,-225 0,0 -85,-39 -217,-55 0,0 -21,-2 -42,-1 0,0 -25,-42 -34,-117 -9,-75 -12,-350 -8,-460 3,-109 22,-277 43,-374 0,0 18,-83 30,-93 13,-9 325,-224 578,-434 253,-210 396,-315 396,-315 0,0 9,-12 -15,-14 -24,-3 -311,-3 -311,-3 0,0 -9,-28 -16,-36 -6,-8 -8,-16 13,-13 22,2 260,-1 282,1 22,1 63,14 79,29 16,15 43,99 63,116 20,17 32,20 75,44 43,24 86,67 99,75 12,8 22,-3 12,-16 -10,-13 -52,-59 -78,-81 -25,-21 -47,-36 -47,-36 0,0 17,-12 40,-7 23,6 137,62 143,70 6,9 31,1 41,-9 9,-9 105,-75 105,-75 0,0 -3,-14 -35,-21 -33,-6 -101,-2 -101,-2 0,0 -168,-147 -342,-197 -174,-49 -250,-100 -250,-100 0,0 19,-34 40,-67 22,-34 33,-51 43,-63 10,-13 12,-21 12,-21 0,0 -21,-90 -24,-102 -4,-12 -7,-19 -14,-13 -8,5 -38,54 -58,83 -20,30 -86,149 -86,149 0,0 -318,-158 -369,-177 -51,-20 -92,-27 -92,-27 0,0 59,-50 76,-89 17,-40 60,-112 73,-144 14,-31 25,-78 23,-125 -3,-48 -6,-218 -8,-280 -3,-62 -13,-156 59,-207 72,-51 81,-58 85,-61 4,-4 3,-32 3,-36 0,-4 -4,-63 10,-91 13,-29 57,-93 72,-104 15,-11 20,-19 20,-24 0,-4 -11,-16 -16,-9 -4,7 -59,54 -70,67 -11,12 -29,33 -30,37 -2,4 -20,-9 -18,-28 3,-19 47,-103 56,-116 10,-12 9,-30 -9,-44 -17,-14 -81,-66 -89,-72 -8,-6 -20,-11 -27,5 -7,16 -6,151 -7,165 -2,14 -39,61 -49,77 -11,16 -65,82 -76,212 -11,129 -89,411 -151,520 -61,110 -64,146 -84,164 -20,18 -79,104 -95,156 -16,52 -54,175 -85,240 -32,66 -86,250 -92,261 -6,12 -3,13 -3,13 h -141 c 0,0 1,-62 -7,-83 -8,-21 -35,-49 -46,-54 -10,-6 -21,-11 -12,-27 9,-16 27,-41 15,-100 -12,-58 -127,-49 -127,-49 0,0 -10,-38 -6,-80 4,-43 37,-181 40,-192 4,-11 18,-150 17,-178 -2,-28 -6,-44 -16,-53 -10,-9 -35,-12 -56,-10 -20,1 -94,5 -149,29 -55,23 -165,72 -165,72 0,0 12,-15 17,-27 6,-12 11,-35 11,-45 0,0 14,-88 -69,-124 -83,-37 -188,0 -207,67 -19,68 29,85 29,85 0,0 -100,-8 -128,-13 -27,-4 -113,-6 -128,85 -15,91 28,136 72,156 l 11,7 c 0,0 -3,21 -7,26 -5,5 -6,17 -6,23 0,7 0,48 30,73 31,26 63,48 69,67 7,19 1,46 -11,56 -13,10 -74,56 -80,86 -5,30 3,42 29,59 27,17 44,24 42,47 0,0 -7,5 -10,-3 -2,-7 -46,-48 -103,5 -58,53 -29,174 44,186 l 34,5 c 0,0 -30,37 -43,101 -12,65 17,79 17,79 z m 1618,-49 c 0,0 -63,-9 -95,-7 -33,3 -65,0 -65,0 0,0 41,-140 44,-156 3,-16 9,-24 18,-24 8,1 49,0 49,0 0,0 10,19 22,41 13,21 43,76 50,83 7,7 -23,63 -23,63 z"
   id="path1" />
   <g
   id="g5">
    <path
   class="fil1"
   d="m 584,2733 h 112 c 104,0 178,-23 223,-69 45,-46 67,-121 67,-227 0,-108 -22,-185 -67,-229 -45,-44 -122,-66 -231,-66 H 584 Z m -468,104 v -104 h 60 c 43,0 70,-4 82,-12 12,-8 18,-27 18,-58 v -452 c 0,-31 -6,-50 -18,-58 -12,-7 -39,-11 -82,-11 h -60 v -105 h 580 c 219,0 382,33 488,98 106,66 159,166 159,302 0,135 -53,236 -160,302 -106,65 -268,98 -487,98 z m 1306,-76 c 0,-28 13,-52 40,-72 27,-19 60,-29 99,-29 38,0 70,9 97,29 27,20 40,44 40,72 0,29 -13,53 -39,72 -27,19 -59,28 -98,28 -40,0 -73,-9 -99,-29 -27,-19 -40,-43 -40,-71 z m 1035,-285 -110,-253 -112,253 z m -658,361 v -104 h 40 c 36,0 62,-5 78,-13 17,-8 33,-30 49,-65 l 282,-618 h 327 l 270,622 c 14,30 28,50 44,59 15,10 38,15 69,15 h 56 v 104 h -606 v -104 h 46 c 40,0 66,-2 80,-7 13,-4 20,-11 20,-22 -1,-4 -2,-9 -5,-17 -2,-4 -3,-7 -4,-9 l -42,-98 h -316 l -41,92 c -2,5 -4,11 -6,17 -1,6 -2,11 -2,15 0,11 6,18 17,22 11,5 35,7 71,7 h 54 v 104 z m 1314,-76 c 0,-28 13,-52 40,-72 27,-19 60,-29 99,-29 38,0 70,9 97,29 27,20 41,44 41,72 0,29 -13,53 -40,72 -26,19 -59,28 -98,28 -39,0 -72,-9 -99,-29 -27,-19 -40,-43 -40,-71 z m 430,76 v -104 h 61 c 42,0 70,-4 82,-12 12,-8 18,-27 18,-58 v -452 c 0,-31 -6,-50 -18,-58 -12,-7 -40,-11 -82,-11 h -61 v -105 h 1029 v 327 h -144 c -5,-51 -14,-91 -26,-119 -13,-28 -31,-50 -53,-66 -20,-13 -45,-23 -75,-29 -32,-5 -90,-8 -176,-8 h -87 v 228 h 11 c 52,0 88,-9 108,-26 20,-18 30,-49 30,-95 v -6 h 138 v 365 h -138 c -1,-52 -11,-87 -29,-106 -18,-19 -50,-28 -96,-28 -3,0 -6,0 -12,0 -5,1 -9,1 -12,1 v 188 c 0,31 6,50 18,58 12,8 40,12 84,12 h 68 v 104 z"
   id="path2" />
    <g
   id="g4">
     <path
   class="fil1"
   d="m 987,1118 c 33,0 64,5 93,14 57,19 102,53 135,102 32,50 49,106 50,169 0,76 -21,147 -62,213 -41,67 -96,125 -163,174 -62,47 -128,82 -198,106 -70,24 -132,33 -187,28 -20,-2 -36,-8 -48,-18 -3,-4 -6,-8 -9,-12 -3,-4 -5,-9 -7,-13 -2,-5 -3,-10 -4,-15 -2,-33 13,-69 45,-110 30,-38 70,-73 121,-105 53,-129 101,-298 145,-505 -81,21 -163,67 -247,140 -1,2 -3,2 -5,2 -6,0 -9,-2 -9,-7 0,-3 1,-5 4,-6 88,-77 175,-126 261,-147 1,-7 3,-14 4,-21 1,-4 3,-6 7,-6 6,0 9,2 9,7 0,1 -1,2 -2,2 0,5 -1,10 -2,15 24,-5 47,-7 69,-7 z m -244,559 c -41,27 -74,57 -98,88 -31,38 -45,71 -42,99 1,12 6,23 15,30 9,8 23,13 39,15 52,4 112,-6 180,-29 69,-23 133,-57 194,-102 66,-49 119,-105 159,-170 39,-64 59,-132 59,-205 0,-60 -16,-113 -47,-159 -32,-47 -74,-79 -127,-97 -49,-16 -102,-18 -161,-5 -22,107 -45,202 -68,284 -24,82 -47,152 -70,212 72,-41 155,-71 248,-90 0,0 1,0 2,0 5,0 8,2 8,7 0,5 -2,7 -7,8 -100,20 -187,53 -262,99 -11,27 -22,52 -33,75 -22,44 -44,80 -64,106 -5,6 -10,12 -14,16 -4,5 -7,8 -9,9 l -3,2 c -2,2 -4,2 -6,2 -5,0 -7,-2 -7,-8 0,-3 1,-5 3,-6 6,-4 13,-12 23,-24 20,-26 41,-61 64,-104 7,-17 15,-35 24,-53 z m 578,-82 c 5,0 9,2 12,5 2,2 5,5 6,9 1,2 2,5 3,9 1,4 1,7 1,7 1,4 2,7 4,8 4,1 12,1 22,-2 1,0 1,0 2,0 6,0 9,3 9,8 0,4 -3,6 -7,7 -14,5 -24,5 -32,0 -7,-2 -11,-8 -14,-17 0,-2 0,-5 -1,-9 0,-3 -1,-5 -1,-6 0,-1 -1,-2 -1,-2 -1,0 -1,0 -3,0 -5,0 -12,5 -19,16 -6,10 -13,25 -20,44 -7,17 -12,35 -16,55 -5,20 -8,37 -9,51 -1,1 -1,2 -1,3 -1,1 -2,2 -2,3 -2,1 -4,1 -6,1 -2,1 -4,0 -6,-2 -1,-2 -1,-3 -2,-4 0,-1 0,-2 0,-2 0,-1 0,-3 0,-6 1,-3 1,-9 2,-17 2,-14 5,-34 8,-59 l 14,-86 c 1,-5 3,-7 8,-7 5,0 8,2 8,8 0,0 0,0 0,1 -2,16 -4,28 -6,36 5,-11 10,-21 15,-29 10,-15 21,-23 32,-23 z m 64,7 c 5,0 8,2 8,8 0,1 0,1 -1,2 -10,29 -20,56 -28,83 -6,25 -10,43 -12,57 0,7 1,12 1,15 1,2 2,2 2,2 h 1 c 7,0 17,-6 30,-20 11,-11 23,-26 37,-45 7,-11 14,-22 22,-33 7,-12 12,-20 16,-27 l 5,-9 c 2,-3 4,-4 7,-4 6,0 9,2 9,7 0,1 -1,3 -2,4 -13,24 -27,47 -43,70 -15,21 -28,37 -40,49 -16,16 -30,24 -41,24 -5,0 -8,-1 -11,-3 -3,-3 -5,-6 -6,-10 -2,-5 -3,-12 -2,-21 1,-15 5,-35 12,-60 l 28,-84 c 2,-4 4,-5 8,-5 z m 15,-45 c 4,0 7,2 9,5 1,4 1,7 -1,11 -2,3 -6,5 -10,5 -4,0 -7,-2 -8,-5 -1,-4 -1,-7 1,-10 2,-3 5,-5 9,-6 z m 84,45 c 5,0 8,2 8,8 0,1 0,1 0,2 -7,22 -14,42 -20,59 1,0 1,0 1,0 0,0 0,0 0,-1 12,-19 24,-35 36,-46 13,-15 26,-22 38,-22 9,0 16,3 21,11 3,6 5,13 4,23 0,13 -4,33 -11,59 -11,39 -17,58 -17,58 -1,5 -2,10 -2,13 0,0 0,0 1,-1 3,-3 8,-8 13,-14 9,-12 21,-27 36,-47 l 46,-70 c 2,-2 4,-3 7,-3 5,0 7,2 7,7 0,2 0,4 -1,5 -14,23 -30,46 -47,69 -14,21 -26,37 -36,49 -6,7 -11,12 -15,16 -2,2 -4,4 -6,5 -3,2 -5,3 -8,3 -5,0 -9,-2 -11,-5 -1,-2 -2,-6 -3,-10 0,-5 1,-11 3,-21 0,0 6,-20 17,-58 8,-25 11,-43 11,-55 0,-7 0,-12 -2,-15 -1,-2 -3,-4 -7,-4 -8,0 -17,6 -27,17 -10,11 -21,26 -33,45 -22,36 -38,70 -46,101 0,0 0,1 -1,2 -1,0 -2,1 -2,2 -1,1 -2,1 -4,1 -3,1 -5,0 -7,-2 -1,-2 -2,-4 -2,-5 0,-1 0,-2 0,-2 0,-1 1,-3 1,-6 2,-3 3,-9 6,-17 4,-14 10,-34 17,-59 l 27,-87 c 2,-4 4,-5 8,-5 z m 241,16 c -15,4 -31,14 -47,29 -9,9 -17,20 -25,33 11,-9 24,-21 41,-35 15,-13 26,-22 31,-27 z m 8,-16 c 4,0 7,0 9,2 3,2 5,5 5,9 -1,4 -4,9 -8,14 -5,5 -16,15 -35,30 -9,7 -17,14 -24,20 -7,6 -14,13 -23,21 -8,8 -15,15 -19,21 0,3 0,5 0,6 0,6 1,13 3,20 2,9 4,15 7,19 7,10 23,6 47,-15 13,-11 27,-26 43,-46 7,-10 15,-21 22,-32 8,-12 14,-20 17,-27 l 5,-9 c 2,-3 4,-4 8,-4 4,0 7,2 7,7 0,1 0,3 -1,4 -13,24 -28,47 -46,71 -16,20 -31,36 -46,49 -33,28 -56,31 -68,10 -5,-5 -8,-13 -10,-23 -1,-2 -1,-5 -2,-9 -9,25 -18,45 -26,58 -5,10 -10,17 -16,21 -6,6 -12,10 -18,10 -6,0 -9,-3 -9,-8 0,-5 3,-8 9,-8 2,0 5,-2 8,-5 4,-4 8,-9 13,-17 8,-14 17,-37 28,-66 5,-16 25,-86 60,-208 27,-95 51,-166 73,-213 14,-32 29,-57 44,-75 16,-21 34,-33 53,-36 0,0 0,0 1,0 5,0 8,2 8,7 0,5 -2,8 -7,8 -14,2 -28,12 -43,30 -14,18 -28,42 -42,73 -20,46 -44,116 -71,211 -5,12 -9,27 -14,44 -5,18 -9,34 -13,49 -5,15 -8,29 -12,42 6,-8 11,-15 17,-21 22,-23 44,-34 66,-34 z m 418,11 c -2,0 -3,0 -5,0 -14,4 -29,18 -44,44 -15,25 -24,50 -27,75 -2,11 -3,20 -1,27 1,5 4,9 7,10 5,1 11,-1 18,-7 7,-6 17,-15 28,-28 13,-17 33,-46 59,-85 -6,-15 -13,-25 -21,-31 -5,-3 -9,-5 -14,-5 z m 0,-15 c 9,0 17,2 25,8 7,6 14,15 20,27 9,-14 14,-23 17,-27 1,-2 2,-3 3,-3 1,-1 2,-1 3,-1 6,0 9,2 9,8 0,0 0,1 0,2 0,0 -1,0 -1,1 -13,28 -23,55 -30,82 -7,24 -11,42 -11,56 0,6 1,12 2,15 2,2 4,3 8,3 6,0 22,-15 45,-47 23,-31 40,-60 49,-86 1,-3 3,-5 8,-5 4,0 7,2 7,7 0,1 0,3 0,3 -6,18 -22,47 -48,86 -26,38 -47,58 -61,58 -9,0 -16,-4 -21,-11 -3,-6 -4,-14 -4,-23 0,-15 3,-35 10,-60 1,-5 3,-10 5,-14 -19,29 -35,51 -47,66 -11,15 -22,26 -31,33 -10,7 -20,10 -30,9 -1,0 -1,0 -1,0 -10,-3 -16,-10 -18,-22 -3,-9 -3,-20 0,-34 4,-27 14,-54 29,-79 18,-30 36,-47 54,-51 3,-1 6,-1 9,-1 z m 156,4 c 5,0 8,2 8,8 0,1 0,1 0,2 -7,22 -13,42 -20,59 1,0 1,0 1,0 0,0 0,0 0,-1 12,-19 24,-35 36,-46 14,-15 27,-22 38,-22 9,0 16,3 21,11 4,6 5,13 4,23 0,13 -3,33 -11,59 -11,39 -17,58 -17,58 -1,5 -2,10 -2,13 0,0 1,0 1,-1 4,-3 8,-8 14,-14 9,-12 21,-27 35,-47 l 46,-70 c 2,-2 4,-3 7,-3 5,0 8,2 8,7 0,2 -1,4 -2,5 -14,23 -30,46 -46,69 -15,21 -27,37 -37,49 -5,7 -10,12 -14,16 -2,2 -5,4 -7,5 -2,2 -5,3 -8,3 -5,0 -8,-2 -10,-5 -2,-2 -3,-6 -3,-10 0,-5 1,-11 3,-21 0,0 5,-20 16,-58 8,-25 12,-43 12,-55 0,-7 -1,-12 -2,-15 -2,-2 -4,-4 -8,-4 -7,0 -16,6 -27,17 -10,11 -21,26 -33,45 -22,36 -37,70 -46,101 0,0 0,1 -1,2 -1,0 -1,1 -2,2 -1,1 -2,1 -4,1 -3,1 -5,0 -6,-2 -2,-2 -2,-4 -2,-5 0,-1 0,-2 0,-2 0,-1 0,-3 1,-6 1,-3 3,-9 5,-17 4,-14 10,-34 18,-59 l 27,-87 c 1,-4 3,-5 7,-5 z m 485,-409 c 5,0 7,2 7,7 0,6 -2,8 -7,8 -11,0 -24,8 -39,22 -14,15 -30,37 -46,65 -32,52 -62,117 -92,196 -21,54 -37,105 -48,151 0,2 0,3 1,3 1,2 1,3 1,4 0,4 -2,6 -6,7 -3,12 -5,22 -6,32 -5,28 -7,49 -5,64 0,7 1,11 3,14 1,2 3,3 5,3 5,0 11,-3 18,-8 6,-6 13,-16 21,-29 5,-6 24,-38 58,-97 1,-3 3,-4 7,-4 5,0 7,2 7,7 0,2 0,4 -1,4 -34,60 -53,93 -57,99 -9,14 -17,24 -25,31 -10,9 -19,13 -28,13 -8,0 -14,-4 -18,-11 -3,-4 -5,-11 -6,-20 -2,-17 0,-40 5,-68 1,-8 3,-16 5,-24 -16,28 -28,49 -38,64 -12,18 -22,33 -31,42 -12,13 -23,18 -33,17 0,0 -1,0 -1,0 -9,-3 -15,-10 -17,-22 -3,-9 -3,-20 0,-34 4,-27 13,-54 29,-79 17,-30 35,-47 54,-51 3,-1 5,-1 8,-1 9,0 18,2 25,8 4,3 7,6 11,11 0,0 1,-2 3,-5 1,-3 2,-5 4,-6 0,-1 0,-1 1,-1 10,-38 23,-78 39,-119 30,-80 61,-146 93,-200 17,-29 34,-51 50,-66 17,-18 34,-27 49,-27 z m -275,420 c -1,0 -3,0 -5,0 -14,4 -28,18 -44,44 -14,25 -23,50 -27,75 -2,11 -2,20 -1,27 2,5 4,9 6,10 5,0 11,-4 19,-12 8,-9 19,-22 30,-40 9,-14 26,-42 49,-84 -4,-6 -8,-11 -12,-15 -5,-3 -10,-5 -15,-5 z m 884,-3 c -2,1 -3,2 -3,3 2,-2 3,-3 3,-3 z m 9,-21 c 5,0 9,2 11,5 2,3 2,7 1,11 -1,5 -4,10 -10,15 -9,12 -21,18 -33,21 0,0 -1,1 -2,4 -1,2 -3,4 -3,5 l -20,48 c -1,4 -4,6 -8,6 -5,0 -8,-3 -8,-8 0,-1 0,-2 0,-3 7,-16 14,-33 22,-50 0,0 0,0 0,-1 l -60,3 c -24,38 -48,75 -74,112 -25,37 -44,65 -57,84 l -21,27 c -1,3 -4,4 -6,4 -5,0 -8,-2 -8,-8 0,-1 1,-3 1,-4 46,-63 95,-134 146,-214 l -107,6 h -1 c -5,0 -7,-3 -7,-9 0,-5 2,-7 7,-7 l 119,-6 c 33,-52 62,-101 88,-147 62,-110 99,-196 112,-258 9,-35 8,-62 -1,-80 -8,-19 -26,-28 -54,-28 -55,0 -113,9 -174,29 -61,19 -115,47 -160,82 -51,40 -84,85 -101,136 -19,58 -16,121 11,189 0,0 1,1 1,3 0,5 -3,7 -9,7 -3,0 -6,-2 -7,-5 -28,-71 -32,-137 -11,-199 18,-54 53,-102 107,-143 47,-37 102,-66 164,-85 63,-20 122,-30 179,-30 34,0 57,12 69,36 10,22 10,52 2,91 -14,64 -52,151 -114,262 -25,44 -52,91 -84,140 l 59,-3 c 4,-8 9,-14 13,-19 10,-13 19,-19 28,-19 z m 103,11 c 5,0 9,2 13,4 7,4 11,11 13,21 4,16 3,36 -5,62 -8,25 -18,47 -31,66 -16,21 -32,32 -48,32 -9,0 -16,-3 -22,-9 -4,-5 -7,-12 -8,-21 -3,-15 -2,-33 3,-55 5,-21 12,-39 21,-55 5,-7 9,-13 14,-18 7,-6 13,-9 19,-9 6,0 8,3 8,8 0,5 -2,8 -8,8 -2,0 -4,1 -7,4 -4,4 -8,9 -12,16 -8,14 -15,30 -19,50 -5,19 -7,35 -5,49 2,5 4,9 7,12 2,3 5,4 9,4 10,0 22,-8 34,-26 13,-16 23,-37 29,-60 7,-24 9,-42 7,-55 -2,-5 -4,-9 -7,-11 -3,-2 -8,-2 -14,0 -2,0 -3,0 -3,0 -5,0 -8,-2 -8,-7 0,-4 2,-7 6,-8 5,-2 10,-2 14,-2 z m 79,31 c 5,0 8,2 8,7 0,2 -1,4 -2,6 l -88,98 c -1,2 -3,3 -6,3 -6,0 -8,-2 -8,-8 0,-2 0,-4 2,-5 l 88,-98 c 1,-2 4,-3 6,-3 z m 56,-36 c 4,0 8,2 11,5 3,2 5,5 6,9 2,2 3,5 3,9 1,4 1,7 1,7 1,4 2,7 5,8 4,1 11,1 21,-2 1,0 2,0 2,0 6,0 9,3 9,8 0,4 -2,6 -6,7 -14,5 -25,5 -33,0 -7,-2 -11,-8 -13,-17 0,-2 -1,-5 -1,-9 -1,-3 -2,-5 -2,-6 0,-1 -1,-2 -1,-2 0,0 -1,0 -2,0 -6,0 -12,5 -19,16 -7,10 -14,25 -21,44 -6,17 -12,35 -16,55 -5,20 -8,37 -9,51 -1,1 -1,2 -1,3 -1,1 -1,2 -2,3 -2,1 -3,1 -5,1 -2,1 -5,0 -7,-2 0,-2 -1,-3 -2,-4 0,-1 0,-2 0,-2 0,-1 0,-3 0,-6 1,-3 2,-9 2,-17 2,-14 5,-34 9,-59 l 13,-86 c 1,-5 4,-7 9,-7 4,0 7,2 7,8 0,0 0,0 0,1 -2,16 -4,28 -5,36 5,-11 9,-21 14,-29 11,-15 21,-23 33,-23 z m 100,18 c -2,0 -3,0 -5,0 -14,4 -29,18 -44,44 -14,25 -23,50 -28,75 -2,11 -2,20 0,27 2,6 4,10 7,10 7,2 14,1 23,-5 8,-6 18,-17 29,-32 9,-12 26,-39 53,-82 -6,-16 -13,-26 -20,-32 -5,-3 -10,-5 -15,-5 z m -1,-15 c 9,0 18,2 25,8 8,6 15,15 21,27 8,-13 14,-22 18,-27 1,-2 1,-3 2,-3 1,-1 3,-1 4,-1 2,0 3,0 4,1 3,1 4,4 4,7 0,0 0,0 -1,1 0,1 0,2 0,2 0,1 0,1 0,1 -16,28 -39,77 -68,147 -29,71 -52,122 -69,154 -30,56 -62,99 -97,127 -42,35 -91,53 -145,53 -6,0 -9,-3 -9,-8 0,-5 3,-8 9,-8 51,0 96,-16 136,-50 33,-27 63,-67 93,-121 13,-27 40,-89 81,-185 -4,7 -9,13 -13,18 -12,17 -22,29 -32,36 -13,8 -25,11 -36,8 -9,-3 -15,-10 -18,-22 -2,-9 -2,-20 0,-34 4,-27 14,-54 29,-79 17,-30 36,-47 55,-51 2,-1 5,-1 7,-1 z"
   id="path3" />
     <path
   class="fil1"
   d="m 3889,1613 c -10,0 -22,7 -35,22 -13,15 -24,33 -33,54 -5,11 -8,23 -10,34 11,-2 23,-8 35,-17 14,-11 26,-25 36,-42 9,-15 15,-28 15,-39 1,-5 1,-8 -1,-10 -1,-1 -4,-2 -7,-2 z m 0,-15 c 8,0 15,2 20,8 3,5 5,11 4,20 -1,13 -7,28 -18,46 -11,18 -24,34 -39,46 -16,13 -32,20 -48,21 0,1 0,2 0,3 0,1 0,2 0,2 0,8 1,14 3,18 2,4 5,7 9,7 13,4 30,-4 52,-22 30,-22 62,-60 95,-113 2,-2 5,-3 7,-3 5,0 8,2 8,7 0,2 -1,4 -1,5 -34,54 -67,93 -98,117 -27,21 -50,30 -67,25 -8,-2 -14,-7 -19,-16 -3,-6 -5,-14 -5,-25 0,-17 5,-38 15,-61 9,-23 21,-42 34,-58 17,-18 33,-27 48,-27 z m 143,-47 c 8,0 15,0 21,0 8,0 14,1 17,3 3,0 5,2 7,3 3,3 5,6 5,9 0,6 -3,9 -9,9 -3,0 -6,-2 -7,-6 0,0 0,-1 0,-1 -3,0 -7,-1 -14,-1 -10,0 -25,0 -43,0 -2,1 -3,1 -4,1 -5,14 -9,26 -13,39 -15,52 -24,92 -26,121 -1,15 -1,26 2,33 1,3 3,5 4,6 2,2 3,2 5,2 7,0 15,-6 26,-18 10,-12 21,-27 33,-47 6,-10 12,-21 18,-32 6,-12 11,-20 14,-27 l 4,-10 c 2,-3 4,-4 7,-4 5,0 8,3 8,8 0,1 0,2 0,3 -11,23 -24,46 -38,70 -12,21 -23,37 -33,49 -15,16 -27,24 -39,24 -5,0 -10,-2 -15,-5 -4,-3 -6,-8 -8,-14 -4,-9 -5,-22 -4,-39 2,-30 11,-72 27,-125 3,-11 7,-21 11,-33 0,0 -15,2 -45,6 -1,0 -1,0 -1,0 -5,0 -8,-3 -8,-9 0,-4 2,-6 7,-7 16,-2 33,-4 52,-6 25,-76 57,-160 95,-252 1,-4 4,-5 7,-5 6,0 8,2 8,8 0,1 0,2 -1,3 -37,89 -68,170 -92,245 8,-1 15,-1 22,-1 z"
   id="path4" />
    </g>
   </g>
  </g>
 </g></g></g></svg>
