<?xml version="1.0" encoding="UTF-8" standalone="no"?>
<!-- Created with Inkscape (http://www.inkscape.org/) -->

<svg
   width="1080"
   height="1080"
   viewBox="0 0 285.74999 285.75"
   version="1.1"
   id="svg1"
   xml:space="preserve"
   xmlns="http://www.w3.org/2000/svg"
   xmlns:svg="http://www.w3.org/2000/svg"><defs
     id="defs1" /><g
     id="layer1"><path
       style="fill:#000000;stroke-width:3.3358"
       d="m 120.70464,285.50333 c -10.82909,-1.02431 -18.25945,-4.62222 -18.94168,-9.17184 -0.38415,-2.56156 0.93399,-5.08201 3.67304,-7.02352 4.57075,-3.23987 10.16162,-4.85028 17.53956,-5.05222 l 3.36996,-0.0921 0.47718,-1.56749 c 0.63354,-2.08089 1.55959,-7.76924 1.92062,-11.79735 0.52132,-5.81652 0.31689,-17.43159 -0.56405,-32.05588 -0.69482,-11.53359 -1.42289,-17.38638 -2.4329,-19.55707 -0.75594,-1.62465 -11.56006,-12.05642 -29.903712,-28.87321 -4.655671,-4.26811 -9.869553,-9.12943 -11.586456,-10.80296 -1.7169,-1.67351 -3.254102,-3.04276 -3.415988,-3.04276 -0.161786,0 -0.536496,0.27388 -0.832414,0.60859 -1.15402,1.30532 -5.154226,4.01626 -7.862482,5.32836 -4.170602,2.02063 -6.816713,2.63926 -11.378502,2.6601 -3.488309,0.0166 -3.775243,-0.0232 -4.358861,-0.6074 -1.343636,-1.3431 -0.885603,-5.66185 0.979751,-9.23799 0.492633,-0.94443 0.932891,-1.79427 0.978357,-1.88847 0.04547,-0.0941 -0.569587,-0.24852 -1.366774,-0.34294 -1.915321,-0.22685 -3.038026,-0.91628 -4.129182,-2.53568 -2.086728,-3.09689 -1.797768,-7.27607 0.660771,-9.55663 2.211739,-2.05158 4.578453,-2.21201 6.521771,-0.44196 l 0.635469,0.57879 v -0.70605 c 0,-0.76643 -0.679247,-1.48896 -2.325423,-2.47359 -1.481667,-0.88626 -2.19366,-1.8929 -2.192412,-3.09977 0.0015,-1.4189 0.698237,-2.42627 3.35712,-4.85368 2.391902,-2.18367 3.015315,-3.29683 2.668129,-4.76424 -0.219729,-0.92869 -0.65066,-1.41965 -3.060784,-3.48705 -1.087356,-0.93275 -2.253643,-2.14115 -2.591745,-2.68535 -0.86542,-1.39294 -1.091617,-3.38189 -0.535871,-4.71201 0.244481,-0.58513 0.444525,-1.2351 0.444525,-1.44435 0,-0.20917 -0.695399,-0.82531 -1.545331,-1.36903 -2.776987,-1.7764 -3.865374,-3.91213 -3.853835,-7.5622 0.01233,-3.887205 1.546975,-6.321176 4.533043,-7.189249 1.442745,-0.419415 1.941372,-0.418344 6.370057,0.01337 5.928741,0.578527 5.7467,0.583125 4.849674,-0.122425 -1.109595,-0.87281 -1.485464,-2.452785 -1.048263,-4.406385 0.466149,-2.082978 2.256324,-3.956358 4.691673,-4.90973 2.336696,-0.914741 6.075953,-0.92575 8.373683,-0.02332 1.906441,0.74769 3.89214,2.769951 4.406886,4.488017 0.737546,2.461649 0.228501,6.378015 -1.013214,7.796695 -0.598108,0.683297 -1.050509,0.849397 5.867865,-2.153893 6.207717,-2.69479 7.844959,-3.179218 12.338145,-3.650525 5.40323,-0.566828 6.30228,0.08501 6.30228,4.569167 0,3.776818 -0.78744,10.074798 -1.80451,14.432388 -1.62531,6.96361 -1.98852,9.50221 -1.69841,11.87101 l 0.25486,2.08196 2.47536,0.18847 c 2.90321,0.22117 4.80726,1.00249 5.44403,2.23389 0.23082,0.44619 0.49411,1.54526 0.58529,2.44233 0.16145,1.58948 0.0453,2.1241 -1.03606,4.76582 -0.35343,0.86344 -0.33326,0.8999 1.49245,2.69002 2.11621,2.07492 2.47341,2.9571 2.4758,6.1149 l 0.001,2.05463 4.58951,-0.0778 4.58949,-0.0778 2.7006,-7.90809 c 1.4853,-4.34943 3.30797,-9.30608 4.05032,-11.01478 0.74238,-1.7087 2.27281,-5.9028 3.40099,-9.32022 2.57939,-7.8134 4.05609,-10.76289 7.20704,-14.39506 0.66953,-0.7718 1.67001,-2.42402 2.22328,-3.67161 0.55327,-1.247586 1.93878,-4.078007 3.07884,-6.289804 1.93757,-3.758942 4.03115,-8.603955 4.4653,-10.333765 l 0.18947,-0.754825 h -2.7137 -2.7137 v -2.357673 -2.35774 l 3.02949,-0.18547 c 2.46526,-0.150778 3.13188,-0.28788 3.57922,-0.735043 0.5446,-0.544603 0.53772,-0.57776 -0.74562,-3.599757 l -1.29525,-3.050086 h -7.5795 -7.5795 l -1.09008,2.259469 c -0.59953,1.242683 -1.15475,2.723511 -1.23379,3.290695 -0.19416,1.392796 0.3846,1.668299 3.91205,1.862676 l 2.78948,0.15378 v 2.35961 2.359574 h -11.57964 -11.57969 v -2.358975 -2.359008 l 2.42088,-0.186138 c 2.70734,-0.208153 3.7518,-0.627062 4.62673,-1.85577 0.32791,-0.460506 3.74321,-7.738547 7.5895,-16.173408 l 6.99329,-15.336123 h 7.87446 7.87444 l 1.7803,4.095224 c 0.9792,2.252396 1.88621,4.338003 2.01564,4.634688 0.1878,0.430886 0.3654,0.146775 0.88162,-1.412143 0.82403,-2.488471 2.19272,-5.013601 4.30223,-7.937359 2.42933,-3.36702 2.49615,-3.59799 2.53485,-8.762169 0.0567,-7.543972 0.13276,-7.598144 5.06784,-3.59589 3.70159,3.002017 4.08959,3.609466 3.22771,5.053698 -1.53779,2.577003 -3.52656,6.900863 -3.52706,7.668362 -3e-4,0.487227 0.22683,1.079998 0.51347,1.339323 0.4846,0.438523 0.56609,0.395692 1.42289,-0.747786 0.49987,-0.667159 2.05755,-2.272344 3.46153,-3.567135 2.30152,-2.122532 2.59561,-2.311238 2.98883,-1.918048 0.39322,0.393223 0.29123,0.584631 -1.03694,1.945404 -2.03162,2.081569 -4.55295,5.954028 -5.00085,7.680804 -0.20482,0.789783 -0.37247,2.722909 -0.37247,4.295871 v 2.859945 l -2.75372,1.948538 c -1.51454,1.071692 -3.24019,2.386162 -3.83475,2.921057 -1.12359,1.010747 -2.44934,3.284525 -2.44934,4.200836 0,0.931021 4.11523,9.999116 5.03486,11.094456 0.99236,1.182042 2.53824,1.670367 5.28776,1.670367 h 1.53946 v 2.400672 2.40064 h -6.0708 -6.07086 l 0.18014,5.860457 c 0.16644,5.409428 0.13344,6.045163 -0.42626,8.261106 -0.3656,1.4472 -1.24774,3.634513 -2.2211,5.507383 -0.88802,1.70871 -2.18975,4.25058 -2.89267,5.64861 -0.91544,1.82065 -1.85276,3.14489 -3.30343,4.66711 l -2.0254,2.12529 2.97492,0.92573 c 3.16914,0.98621 6.61422,2.54305 19.03864,8.60373 l 7.79736,3.80361 1.92141,-3.42563 c 2.34587,-4.18233 6.46217,-10.66905 7.1859,-11.324 0.50034,-0.4528 0.54617,-0.45066 0.80427,0.0377 0.15044,0.28487 0.61881,2.04281 1.04063,3.90686 l 0.76696,3.38916 -2.64214,3.95992 c -3.66712,5.49607 -3.63389,5.4232 -2.77322,6.08086 1.71564,1.31096 8.3562,3.92167 16.16077,6.35356 5.78089,1.8013 12.52924,5.5114 18.72616,10.29521 l 2.8989,2.23786 h 3.27785 c 2.46294,0 3.52237,0.1161 4.26136,0.46669 0.99313,0.47133 1.27983,1.07433 0.63043,1.32606 -0.19414,0.0753 -1.81464,1.18863 -3.60099,2.47411 -1.78639,1.28552 -3.56652,2.46112 -3.95583,2.61244 -0.59674,0.23184 -1.07944,0.0693 -3.07517,-1.03436 -5.34434,-2.95619 -8.65818,-4.08505 -9.82074,-3.34545 -0.21084,0.13411 0.48454,0.87088 1.92802,2.04327 2.81983,2.29041 6.21271,6.04957 5.98816,6.63474 -0.0894,0.23318 -0.25921,0.42392 -0.37682,0.42392 -0.11776,0 -1.47046,-1.01032 -3.00592,-2.24514 -1.53546,-1.2348 -3.90528,-2.83288 -5.26622,-3.55127 -1.36094,-0.71843 -2.84745,-1.62003 -3.30332,-2.00366 -0.49695,-0.41813 -1.50595,-2.10039 -2.51991,-4.20126 -1.61573,-3.34771 -1.7517,-3.53438 -3.0514,-4.18906 -0.74815,-0.37688 -2.0338,-0.82811 -2.85696,-1.00277 -1.7174,-0.36441 -20.39174,-0.45128 -20.39174,-0.0947 0,0.12244 0.2542,0.72127 0.5649,1.33066 0.31055,0.60939 0.56483,1.2717 0.56483,1.47188 0,0.29022 2.07558,0.36391 10.25474,0.36391 8.09785,0 10.36304,0.0789 10.76957,0.37643 0.46843,0.34253 0.13676,0.66571 -3.6823,3.58906 -5.30892,4.06371 -12.39719,9.72015 -20.16632,16.09274 -10.68328,8.76298 -21.48109,17.00226 -33.78785,25.78194 -5.98645,4.27072 -5.7758,4.01567 -6.84725,8.29019 -0.62159,2.47987 -1.22277,5.99773 -1.8506,10.82873 -1.07526,8.27409 -1.14986,9.96855 -1.14986,26.12482 0,18.35548 0.0844,19.45065 1.88921,24.5009 l 0.58035,1.62395 h 1.46916 c 3.10245,0 10.19523,1.54823 14.22811,3.1057 5.2406,2.0239 9.06359,5.74357 9.08157,8.83608 0.0133,2.48871 -1.59545,4.38433 -5.30609,6.24795 -4.33287,2.17609 -4.3804,2.18351 -15.5876,2.4388 -12.30839,0.28021 -18.0078,0.26821 -21.32352,-0.0453 z m 27.41026,-0.79332 c 8.60234,-0.83291 14.3121,-4.55726 13.50247,-8.80734 -0.27589,-1.44794 -0.78276,-2.28455 -2.14523,-3.54045 -1.70066,-1.56758 -3.41052,-2.52108 -6.5031,-3.62642 -4.01214,-1.43398 -13.48275,-3.21606 -13.48275,-2.537 0,0.12476 0.76256,1.02096 1.69457,1.99159 1.87176,1.94921 2.20065,2.70719 0.82457,1.90019 -2.45199,-1.43799 -4.65056,-4.73563 -5.98911,-8.98316 -1.21677,-3.86099 -1.38975,-7.27077 -1.26097,-24.85392 0.11276,-15.37762 0.15145,-16.36118 0.86709,-21.96378 1.01694,-7.96184 1.85162,-12.78614 2.4976,-14.4359 0.29689,-0.75802 0.49826,-1.41963 0.44766,-1.47024 -0.0507,-0.0507 -0.65891,0.10672 -1.3519,0.34989 -1.92641,0.67565 -5.19887,0.60924 -6.88154,-0.13977 -1.72013,-0.76557 -1.57513,-1.04852 0.22317,-0.43573 1.70435,0.58077 4.27652,0.41081 6.43574,-0.42518 3.13868,-1.21522 6.62951,-3.71384 21.76301,-15.57724 8.43026,-6.6086 17.23115,-13.40812 19.55754,-15.11002 l 4.22977,-3.09438 -2.53519,-0.0904 c -1.39436,-0.0496 -3.18452,0.0618 -3.97814,0.24753 -0.80557,0.18847 -1.92832,0.25185 -2.54188,0.1431 -0.6044,-0.10708 -2.9418,-0.26018 -5.1942,-0.34038 -3.94474,-0.14044 -4.13064,-0.12143 -5.05942,0.51221 -0.61407,0.41897 -3.49743,4.27633 -7.9399,10.62188 -3.83665,5.4802 -7.05371,10.042 -7.14906,10.13732 -0.0954,0.0954 -0.25585,-0.0421 -0.35686,-0.3049 -0.21782,-0.56725 0.90927,-2.80449 3.17653,-6.30614 5.37033,-8.2943 8.81507,-13.9738 8.68343,-14.31685 -0.14677,-0.38229 -2.33281,-0.62362 -7.30131,-0.80608 l -1.68389,-0.0618 -2.28259,4.37771 c -3.11842,5.98068 -4.6167,8.18054 -7.60812,11.17091 -3.99407,3.99266 -8.11021,5.78094 -13.27877,5.76903 -1.40423,-0.003 -3.32258,-0.16712 -4.26301,-0.36436 -4.35824,-0.91377 -7.94917,-4.51325 -15.57216,-15.60916 -1.27227,-1.85191 -2.7974,-3.82883 -3.38918,-4.39319 l -1.07594,-1.02608 -1.6946,0.28587 c -1.47452,0.24886 -2.079699,0.19214 -4.660102,-0.43651 -1.63104,-0.3973 -3.053957,-0.6361 -3.162036,-0.53065 -0.10808,0.10542 2.551817,2.73353 5.910864,5.84026 7.771514,7.18781 14.145904,13.35717 14.516464,14.04948 1.10914,2.07246 -5.62273,-3.91907 -18.403401,-16.37953 -2.98267,-2.90787 -3.68749,-3.45976 -4.418662,-3.45976 -2.336492,0 -2.146083,0.2155 11.263993,12.74461 19.46703,18.1883 23.10084,21.78722 24.0784,23.84725 1.66262,3.50379 2.85301,14.07286 3.25854,28.93206 0.29122,10.67341 0.16679,20.45858 -0.31622,24.85391 -0.5149,4.6855 -1.83006,10.40833 -2.85122,12.40653 -0.91009,1.78098 -1.92785,2.75567 -1.53537,1.47039 0.10105,-0.33159 0.26252,-0.85683 0.3582,-1.16753 0.15779,-0.51214 0.0442,-0.56485 -1.22189,-0.56485 -2.63722,0 -7.56937,0.6208 -10.17065,1.28017 -4.62021,1.17114 -8.54976,3.57444 -10.26395,6.27747 -1.55261,2.44821 -1.00226,4.58798 1.81535,7.05868 2.84635,2.49583 8.93578,4.24881 16.84267,4.84852 4.122,0.31255 22.46965,0.34312 25.57445,0.0423 z m -27.9751,-2.8703 c -9.28896,-0.62612 -13.05425,-1.82924 -14.36423,-4.58988 -0.88513,-1.86524 -0.4377,-3.41729 1.23429,-4.28193 1.17137,-0.60574 1.18535,-0.53726 0.10975,0.53824 -1.70495,1.70495 -1.03948,3.91603 1.58097,5.25287 2.93321,1.49641 10.53322,2.2569 22.57159,2.25863 4.41414,6.4e-4 7.93587,0.0911 7.82599,0.20082 -0.73221,0.73221 -11.88831,1.09778 -18.95845,0.62118 z m 26.54846,-0.7745 c -0.73099,-0.18046 -0.55661,-0.25485 1.27094,-0.54322 1.16503,-0.18381 3.04778,-0.40995 4.18385,-0.50245 4.42765,-0.36059 6.5352,-1.93536 5.59658,-4.18182 -0.47632,-1.13993 -1.86148,-2.33186 -3.70815,-3.19075 -1.02779,-0.47802 -1.18153,-0.61312 -0.56487,-0.49639 0.46601,0.0881 1.6734,0.56274 2.68311,1.05453 1.4504,0.70644 1.94566,1.11903 2.35918,1.96552 1.08208,2.21511 -0.29723,4.53049 -3.22135,5.40712 -1.68415,0.50495 -7.24959,0.82041 -8.59929,0.48746 z m -19.77013,-5.51233 c -1.94796,-0.5019 -3.21576,-1.21523 -3.57978,-2.01408 -0.38585,-0.84687 -0.18146,-1.39353 0.74909,-2.00325 0.87986,-0.5765 1.26982,-0.32658 0.61659,0.39536 -0.66989,0.74022 -0.5807,1.37604 0.27121,1.9343 2.49457,1.63453 11.12871,1.59674 13.05066,-0.0571 0.69255,-0.5959 0.72681,-0.72162 0.41918,-1.53771 -0.29455,-0.78139 -0.2782,-0.87779 0.13411,-0.79836 0.25784,0.0498 0.61904,0.39104 0.80229,0.75859 0.5485,1.10017 -0.0133,2.16182 -1.54198,2.90837 -1.16239,0.5681 -1.80473,0.65246 -5.41411,0.71115 -2.63497,0.0427 -4.59878,-0.0631 -5.5074,-0.29721 z m 2.40065,-4.03521 c -0.80797,-0.33091 -1.66613,-1.30613 -1.83812,-2.08922 -0.12609,-0.57461 0.0891,-1.30826 0.79715,-2.71824 0.5335,-1.06214 1.11115,-2.24892 1.28364,-2.63728 0.26186,-0.58925 0.28423,-0.47397 0.13544,0.69683 -0.098,0.77156 -0.41104,1.9154 -0.69558,2.54186 -0.68377,1.50522 -0.66063,1.94407 0.15244,2.88844 0.64219,0.74596 0.80586,0.78992 2.79143,0.7494 3.53961,-0.0723 3.99196,-0.75597 2.44837,-3.70067 -0.74764,-1.42628 -0.8243,-1.77645 -0.60391,-2.7578 0.26186,-1.16514 0.3576,-1.08547 0.85677,0.71169 0.15112,0.54366 0.5383,1.71345 0.86064,2.59955 0.65944,1.81283 0.49486,2.77789 -0.57112,3.34837 -0.68412,0.36614 -4.93992,0.64425 -5.61705,0.36707 z m 3.57293,-18.02271 c -0.39633,-6.93921 -0.53672,-15.99874 -0.30656,-19.78333 l 0.24051,-3.95403 0.33585,5.08375 c 0.3895,5.89559 0.49544,21.00854 0.15111,21.55148 -0.13676,0.21549 -0.3119,-0.99002 -0.42074,-2.89787 z m 0.77797,-33.34616 c -0.3309,-1.3183 0.12043,-13.07394 0.57995,-15.10387 0.22854,-1.00971 0.41996,-2.18531 0.42544,-2.61251 0.01,-0.72753 -0.066,-0.77647 -1.19043,-0.77334 -0.66018,0.002 -1.86722,0.18082 -2.68233,0.39791 -0.83532,0.2225 -1.55009,0.28453 -1.63799,0.1421 -0.25619,-0.41445 1.49438,-1.30302 3.24561,-1.64755 2.01055,-0.39555 3.02476,-0.0891 3.29719,0.99643 0.22918,0.91256 -0.0588,7.23975 -0.42998,9.45075 -0.14544,0.86693 -0.41131,3.34527 -0.59059,5.50741 -0.32926,3.96879 -0.64818,5.11153 -1.01687,3.64257 z m -4.64725,-24.98997 c -1.68916,-0.26621 -4.58299,-1.25566 -5.48569,-1.87576 -0.81237,-0.55801 -0.28721,-0.46907 2.25166,0.38141 1.99634,0.66874 2.70346,0.75804 6.07227,0.76694 5.62123,0.0133 7.75037,-0.77513 11.61925,-4.31145 1.70641,-1.55972 1.93741,-1.68445 1.93741,-1.04608 0,0.59447 -3.82976,3.7267 -5.55397,4.54236 -2.84287,1.3449 -7.70482,2.03671 -10.84093,1.54258 z m 27.12729,-14.92186 c 0,-0.52368 1.17564,-1.60068 5.55286,-5.08696 4.60994,-3.67164 9.94875,-7.51218 10.15547,-7.30546 0.2275,0.22752 -2.92362,2.93134 -8.98163,7.70709 -5.96234,4.70038 -6.7267,5.23278 -6.7267,4.68533 z m -23.51236,2.31792 c 0.84334,-0.22618 0.80316,-0.77882 -0.10875,-1.49607 -0.97288,-0.7653 -2.66286,-0.78099 -3.34157,-0.0301 -0.92752,1.02487 -0.32623,1.46748 2.24994,1.65602 0.31055,0.0233 0.85082,-0.0354 1.20035,-0.12876 z m -4.21639,-1.60403 c 0.19882,-1.03205 -0.95286,-1.66385 -1.91908,-1.05284 -0.35066,0.22183 -0.30822,0.37835 0.26988,0.99371 0.75968,0.80864 1.49967,0.83518 1.6491,0.0591 z m 8.41816,-0.92571 c 1.94096,-1.32011 4.49011,-4.0268 6.23141,-6.61662 1.61348,-2.39971 5.56717,-9.29893 5.41319,-9.44614 -0.0554,-0.0531 -1.24473,0.15645 -2.64275,0.46531 -3.0636,0.67711 -4.86629,0.55794 -7.63375,-0.50462 -2.17157,-0.83373 -4.48761,-0.98081 -6.56217,-0.41666 -1.13715,0.30922 -2.49435,0.0505 -1.8439,-0.35149 0.66894,-0.41341 6.24686,-0.54257 7.73465,-0.17914 2.18108,0.53287 5.94669,0.47752 8.58761,-0.12609 3.5253,-0.80593 3.61306,-0.8805 4.58962,-3.90025 1.41204,-4.36635 2.49236,-8.93032 2.18383,-9.22568 -0.15776,-0.1511 -5.6375,-0.35329 -12.71647,-0.469 l -12.43896,-0.20316 -0.90957,2.93104 c -0.77587,2.50031 -2.03196,7.74791 -2.03196,8.48913 0,0.12743 0.17079,0.23185 0.37988,0.23185 0.20881,0 0.61036,0.25452 0.89209,0.566 0.42438,0.46891 0.45681,0.68765 0.18914,1.27508 -0.17781,0.39001 -0.64758,0.85696 -1.04425,1.03766 -0.49766,0.22685 -0.66275,0.46618 -0.53269,0.77255 0.47736,1.12453 0.41521,1.65142 -0.29421,2.49457 -0.5438,0.64625 -0.69272,1.06499 -0.56284,1.58248 0.0971,0.387 0.0521,0.92647 -0.10042,1.19878 -0.19681,0.35168 -0.16312,0.60888 0.11576,0.88792 0.21616,0.21616 0.39279,0.94709 0.39279,1.62453 0,0.98393 0.11375,1.26783 0.56518,1.41112 0.84552,0.26819 1.25313,1.19833 0.88209,2.01264 -0.23786,0.52172 -0.22251,0.67036 0.0683,0.67036 0.65826,0 1.38735,1.06251 1.24396,1.81281 -0.11009,0.57509 0.0133,0.75416 0.67495,0.98499 0.44516,0.15512 0.88392,0.47649 0.97508,0.71399 0.13111,0.3417 0.28655,0.36731 0.74352,0.12274 0.31791,-0.1701 1.22041,-0.2475 2.00578,-0.17212 1.10401,0.10608 1.55918,0.30357 2.00646,0.86982 0.72689,0.92055 1.45457,0.80542 3.4387,-0.54407 z m -10.68356,-1.30279 c 0.86781,-0.86781 -0.38375,-2.45985 -1.62426,-2.06613 -0.73504,0.23317 -0.73308,0.72047 0.006,1.6609 0.63958,0.81313 1.09551,0.92731 1.6176,0.40523 z m -1.08449,-2.89547 c 0.80559,-0.97069 -1.04791,-2.5584 -2.05005,-1.75608 -0.35574,0.2849 -0.35881,0.45685 -0.0234,1.24825 0.42862,1.00759 1.44969,1.25785 2.07216,0.50783 z m -1.56034,-3.35448 c 0.41913,-0.30656 0.45501,-0.48446 0.19549,-0.96937 -0.33571,-0.62728 -1.26663,-1.06023 -1.70158,-0.7914 -0.23085,0.14278 -0.18782,0.74236 0.12841,1.78311 0.13945,0.45918 0.73232,0.44957 1.37768,-0.0233 z m -0.26418,-3.85894 c 0,-0.35164 -0.28588,-0.82918 -0.63547,-1.06123 -0.62799,-0.41697 -0.63546,-0.40669 -0.63546,0.87435 0,1.22567 0.0347,1.28347 0.63546,1.06121 0.40259,-0.14877 0.63547,-0.46933 0.63547,-0.87433 z m 0.99162,-2.54984 c 0.31523,-0.58928 0.22217,-0.90312 -0.52595,-1.77313 -0.41322,-0.48045 -0.46387,-0.45751 -0.93372,0.42365 -0.75558,1.41708 -0.67256,1.92018 0.3169,1.92018 0.55114,0 0.94173,-0.19514 1.14277,-0.5707 z M 63.051814,164.3657 c 5.707744,-0.82512 12.693139,-4.42444 19.383479,-9.98762 3.140385,-2.61132 7.421979,-5.02725 9.545146,-5.38594 0.929486,-0.15712 1.249623,-0.0884 1.702591,0.36443 0.488327,0.48833 3.129943,1.46164 3.966963,1.46164 0.165122,0 0.941194,0.56937 1.724739,1.26525 1.511748,1.34264 3.058258,2.27295 3.328788,2.00242 0.0897,-0.0897 -0.11274,-0.45682 -0.4499,-0.81573 -0.33718,-0.35888 -0.61305,-0.78106 -0.61305,-0.93815 0,-0.15711 -0.3139,-0.58043 -0.69738,-0.94077 -0.38354,-0.36031 -0.62703,-0.76892 -0.54107,-0.90799 0.23551,-0.38131 1.20743,0.003 2.93303,1.1636 2.07843,1.39646 2.39991,1.49093 2.9615,0.8704 0.3651,-0.4034 0.40446,-0.64986 0.17279,-1.08242 -0.23217,-0.43354 -0.20515,-0.59645 0.11875,-0.72073 0.69985,-0.26854 0.47375,-0.70348 -0.66869,-1.28632 -0.59795,-0.30524 -1.71003,-1.03361 -2.47129,-1.619 -1.54908,-1.19126 -8.271911,-4.04095 -9.548088,-4.04727 -0.509775,-0.002 -2.477561,0.91799 -5.1933,2.42937 -5.865531,3.26435 -6.919675,3.69883 -11.293138,4.65471 -6.657324,1.4551 -9.621547,2.7583 -13.180038,5.79457 -1.162647,0.99203 -2.177867,1.8037 -2.256043,1.8037 -0.326872,0 0.265497,-1.05378 1.081323,-1.92356 0.997006,-1.06288 4.274892,-3.22751 6.855171,-4.52694 1.227497,-0.61815 2.186344,-1.4005 3.247955,-2.65009 2.228005,-2.6225 4.297366,-4.58261 5.715379,-5.41362 1.474322,-0.864 2.081839,-0.92055 2.608927,-0.24284 0.36527,0.46971 0.399562,0.46883 0.69021,-0.0166 0.200481,-0.33528 0.565149,-0.48116 1.058914,-0.42364 0.605414,0.0703 0.771371,-0.0414 0.846326,-0.57063 0.05536,-0.39125 0.485124,-0.88957 1.059115,-1.22824 0.752189,-0.44379 0.965846,-0.75401 0.965846,-1.4024 0,-0.62919 0.206486,-0.95004 0.845524,-1.31363 0.659921,-0.37552 0.845892,-0.6782 0.847293,-1.37886 0.0021,-1.06061 0.630399,-1.78535 1.54771,-1.78535 0.475449,0 0.739178,-0.23217 0.949567,-0.83569 0.193475,-0.55518 0.629431,-0.97691 1.298592,-1.25653 0.553976,-0.23148 1.007244,-0.61798 1.007244,-0.85889 0,-0.70375 1.06245,-1.56778 1.927789,-1.56778 0.486093,0 1.057348,-0.27588 1.46138,-0.70611 0.449665,-0.47861 0.965878,-0.70604 1.602583,-0.70604 0.516615,0 0.939292,-0.12377 0.939292,-0.27521 0,-0.15144 0.381282,-0.47235 0.847293,-0.71333 0.811474,-0.41961 0.847864,-0.51841 0.860834,-2.33728 l 0.0133,-1.89917 0.48069,0.96006 c 0.26454,0.52803 0.74876,1.13535 1.07637,1.34958 l 0.59567,0.38949 0.15812,-5.3036 c 0.1708,-5.73552 0.38393,-7.23396 1.6269,-11.4419 0.91807,-3.10803 1.58387,-7.19416 1.86001,-11.415199 0.1848,-2.824123 0.17646,-2.878133 -0.5463,-3.600995 -0.65313,-0.653153 -0.95566,-0.733876 -2.74998,-0.733876 -2.399,0 -6.905221,0.872907 -9.53553,1.847162 -3.480635,1.289189 -12.48098,5.050268 -12.451926,5.203408 0.01668,0.0834 0.635137,0.69434 1.376249,1.35798 l 1.347495,1.20652 2.789626,-0.70263 c 2.761339,-0.6955 7.524624,-1.37841 11.756948,-1.6856 2.015498,-0.14646 2.168628,-0.1201 1.932463,0.33191 -0.141108,0.26987 -1.611827,4.30349 -3.268315,8.96359 l -3.01179,8.47291 -2.326552,2.25944 c -1.279612,1.24271 -2.922591,3.0538 -3.651096,4.02465 -1.101546,1.46801 -1.465015,1.7652 -2.158861,1.7652 -1.262766,0 -2.313607,-0.59655 -2.7095,-1.53815 l -0.355629,-0.84572 -2.287022,0.0867 c -2.251762,0.0855 -2.287056,0.0761 -2.287056,-0.59324 0,-0.67528 0.01668,-0.67904 2.421621,-0.55281 3.599258,0.18879 4.091655,-0.2055 4.786101,-3.8348 0.823742,-4.30478 0.408768,-9.00331 -0.837452,-9.48154 -0.23584,-0.0908 -0.508341,-0.66035 -0.605245,-1.26623 -0.265864,-1.66359 -0.445797,-1.8334 -1.409275,-1.33096 -0.453935,0.23685 -1.149449,0.43119 -1.545574,0.43217 -0.396093,9.6e-4 -0.855666,0.13709 -1.021288,0.30289 -0.213157,0.21314 -0.343587,0.13876 -0.446595,-0.25552 -0.12376,-0.47322 0.03903,-0.58415 1.087535,-0.74139 1.957947,-0.29355 2.641184,-1.81289 1.604518,-3.5678 -0.266531,-0.45112 -0.552442,-0.81841 -0.63547,-0.81614 -0.08306,0.002 -0.832547,0.70128 -1.665662,1.55334 -0.833083,0.85211 -1.563888,1.54927 -1.623966,1.54927 -0.06005,0 -0.10908,-0.26818 -0.10908,-0.59599 0,-0.33259 0.562015,-1.15005 1.270938,-1.84892 1.455307,-1.43475 1.547042,-1.82811 0.574791,-2.46513 -0.869609,-0.56979 -2.370683,-0.57486 -5.79521,-0.0199 -2.863622,0.46441 -4.310436,1.1271 -6.057034,2.77435 -0.959138,0.90459 -1.008279,1.04223 -1.008279,2.82398 0,1.03019 0.104942,1.87308 0.233207,1.87308 0.128261,0 0.535848,-0.32223 0.905752,-0.71593 0.636947,-0.678 0.807773,-0.71163 3.226578,-0.63547 1.583603,0.0496 2.500366,0.18781 2.412809,0.36287 -0.08163,0.16312 -0.995344,0.24085 -2.164899,0.18379 l -2.02368,-0.0984 -1.29488,1.19359 -1.29488,1.19358 v 2.22347 c 0,1.8894 -0.07092,2.22348 -0.472015,2.22348 -0.259625,0 -0.696432,-0.20314 -0.970712,-0.45133 -1.112185,-1.00651 -1.468678,0.59907 -0.571513,2.574 0.283376,0.6238 0.962835,1.60879 1.509905,2.18885 0.936285,0.99273 1.095275,1.05465 2.70824,1.05465 h 1.713565 l 2.137498,2.61249 c 2.61416,3.19506 3.028732,4.03598 3.205129,6.50124 0.118087,1.65065 0.204485,1.90042 0.593405,1.71753 0.250518,-0.11775 1.408407,-0.24019 2.573434,-0.2722 1.70646,-0.0471 1.871182,-0.0199 0.847292,0.14343 -0.699016,0.11109 -1.715767,0.34945 -2.259434,0.52978 -0.543669,0.18046 -1.349463,0.40111 -1.790624,0.49065 -1.059148,0.21482 -4.099159,3.29126 -7.731813,7.82421 -7.164947,8.94066 -11.38144,16.91531 -11.480303,21.71266 -0.05101,2.47553 0.236507,2.8011 2.467504,2.79389 0.951836,-0.003 2.603632,-0.13177 3.67066,-0.28586 z m 15.716903,-43.97648 c -0.230169,-0.0904 -0.588801,-0.33455 -0.796855,-0.54257 -0.208153,-0.20815 -0.613586,-0.37824 -0.901197,-0.37824 -0.450466,0 -0.412638,-0.12176 0.272866,-0.87719 0.437623,-0.48241 0.996871,-1.11502 1.242787,-1.40573 0.253853,-0.30023 0.636169,-0.45602 0.884718,-0.36068 0.265196,0.10181 0.707523,-0.12341 1.12263,-0.57127 0.437457,-0.47199 0.983026,-0.73918 1.509446,-0.73918 0.773873,0 0.835651,0.085 1.008179,1.38532 0.205485,1.5498 -0.21716,2.8458 -0.933022,2.86015 -0.246849,0.003 -0.695648,0.19546 -0.99717,0.42364 -0.552006,0.41751 -1.636942,0.51004 -2.412246,0.20582 z m 1.830753,-1.76811 c 0.281206,-0.31055 0.682136,-0.56488 0.891091,-0.56488 0.384317,0 0.530625,-0.88481 0.200816,-1.21459 -0.0984,-0.0984 -0.496868,0.0709 -0.885355,0.37658 -0.388521,0.30554 -0.929819,0.55561 -1.202921,0.55561 -0.457472,0 -0.83942,0.5245 -0.83942,1.15281 0,0.48283 1.321342,0.26286 1.835789,-0.30556 z m -12.828551,1.01506 c -0.398189,-0.47979 -0.186406,-1.01506 0.401615,-1.01506 0.611528,0 0.814602,0.57736 0.362195,1.02978 -0.359338,0.35934 -0.45489,0.35748 -0.76381,-0.0133 z m -1.928439,-2.81131 c -0.349507,-0.17313 -0.635468,-0.41167 -0.635468,-0.53017 0,-0.34418 1.265858,-0.24884 1.638097,0.12343 0.765595,0.7656 0.191874,0.9983 -1.002629,0.40669 z m 14.625193,-2.92008 c -0.0066,-0.69036 -0.236842,-1.07697 -0.973085,-1.63858 -0.843023,-0.64299 -2.080637,-2.83944 -1.773176,-3.1469 0.06105,-0.061 0.476452,0.41618 0.923014,1.06058 0.446563,0.64438 1.291555,1.4744 1.877753,1.84447 1.207058,0.76195 1.304062,1.16444 0.510343,2.11719 l -0.555443,0.66676 z m -12.436356,-0.0505 c 0,-0.32957 0.127094,-0.59944 0.282441,-0.59944 0.155348,0 0.282441,-0.19081 0.282441,-0.42364 0,-0.31656 0.338685,-0.42441 1.341546,-0.42665 1.159232,-0.002 1.471675,-0.13676 2.299114,-0.98854 1.117144,-1.14971 1.19171,-1.16652 1.866742,-0.4206 0.49687,0.54902 0.493302,0.56485 -0.127395,0.56485 -0.351226,0 -0.888525,0.31757 -1.193995,0.7061 -0.305458,0.38832 -0.76859,0.70655 -1.029156,0.70711 -0.260559,5.7e-4 -0.89445,0.25753 -1.408633,0.57102 -0.514185,0.31357 -1.059899,0.49272 -1.212702,0.39829 -0.152814,-0.0944 -0.462895,-0.0166 -0.689099,0.16947 -0.338107,0.28054 -0.411274,0.23451 -0.411274,-0.2582 z m 8.755338,-0.3169 c 0,-0.15544 0.127094,-0.28254 0.282542,-0.28254 0.155448,0 0.282542,0.1271 0.282542,0.28254 0,0.15546 -0.127094,0.28254 -0.282542,0.28254 -0.155448,0 -0.282542,-0.12708 -0.282542,-0.28254 z m 48.357205,49.20566 c 0.36715,-0.3149 0.41623,-0.54498 0.20181,-0.94556 -0.40086,-0.74898 -0.74662,-0.65919 -1.25618,0.32624 -0.71607,1.38473 -0.19483,1.69088 1.05431,0.61929 z m 55.29489,-0.0578 3.81282,-0.01 7.99874,-6.42225 c 7.77585,-6.24327 7.97399,-6.42728 7.11145,-6.60369 -0.488,-0.0997 -4.35334,-0.2742 -8.58968,-0.38778 l -7.70244,-0.20616 -0.19382,3.188 c -0.22083,3.63407 -0.6636,4.91873 -2.33479,6.77215 -1.54318,1.71144 -2.86405,2.2388 -5.60985,2.23967 -1.98022,6e-4 -6.5586,-0.53036 -8.19048,-0.94994 -0.40053,-0.10307 -0.7892,0.12808 -1.3359,0.79356 l -0.77109,0.9388 2.60686,0.19379 c 1.43375,0.10672 3.68716,0.35302 5.00753,0.54747 1.38656,0.20416 2.81823,0.26053 3.38918,0.13344 0.54367,-0.1211 2.70425,-0.22384 4.8013,-0.2285 z m -89.551583,-1.03183 c 0.06604,-0.0593 -1.067023,-1.31844 -2.518062,-2.7981 -2.093576,-2.13483 -2.565393,-2.76114 -2.285319,-3.03361 0.279539,-0.27186 0.950601,0.29022 3.224148,2.70017 l 2.871219,3.04354 2.324815,-0.006 c 1.278645,-0.003 3.212806,0.14476 4.298175,0.33089 1.085338,0.18615 2.063427,0.24819 2.173467,0.1381 0.11008,-0.11007 -0.17179,-0.59366 -0.62656,-1.07468 -0.894492,-0.9463 -6.831641,-5.45322 -10.34547,-7.85324 l -2.175539,-1.486 -2.060923,1.42953 c -1.133469,0.78625 -2.42946,1.77401 -2.879926,2.19501 l -0.819038,0.76555 3.502119,3.30678 3.502118,3.3068 0.847294,-0.42789 c 0.46601,-0.23517 0.901399,-0.47641 0.967482,-0.5357 z m 71.011793,-0.45582 c 0.21782,-0.34952 0.60937,-1.21302 0.86998,-1.9189 l 0.47388,-1.28342 -1.52349,-2.57813 c -0.83792,-1.41803 -1.89369,-3.28673 -2.34624,-4.15275 l -0.82273,-1.57453 -1.91245,-6.6e-4 c -1.71329,-6e-4 -1.9413,0.0653 -2.18931,0.63481 -0.50414,1.15708 -3.12177,10.73433 -2.97423,10.88186 0.0797,0.0798 1.4501,0.13578 3.04552,0.12476 2.32771,-0.0166 5.31315,0.18815 6.77765,0.46385 0.1131,0.02 0.38356,-0.24719 0.60142,-0.59682 z m 15.28529,-1.18423 c 2.81198,-0.84625 3.96252,-3.09147 3.9161,-7.64174 -0.0453,-4.45423 -1.1705,-7.73485 -3.89562,-11.36007 -2.35191,-3.12877 -6.49189,-5.86694 -9.95844,-6.58662 -2.19778,-0.45623 -5.41311,-0.22483 -6.61281,0.47569 -0.52006,0.30389 -1.3286,1.09677 -1.79677,1.76227 -0.79903,1.13587 -0.85701,1.39736 -0.94611,4.26741 -0.0756,2.44335 0.0233,3.49025 0.49638,5.21263 1.51287,5.51443 5.09195,10.99132 8.22832,12.59139 2.95469,1.50734 7.84416,2.09908 10.56895,1.27904 z m -17.64379,-16.39521 c -0.22918,-0.2762 -0.3099,-1.05361 -0.23351,-2.25363 0.093,-1.46181 0.28688,-2.07392 0.9588,-3.03012 1.14606,-1.63061 2.88061,-2.79773 4.41497,-2.97067 2.23581,-0.25186 2.82059,1.28735 1.52555,4.0161 -1.46234,3.08127 -5.49711,5.64667 -6.66592,4.23832 z m 2.23471,-1.261 c 2.03381,-1.03756 4.48248,-4.61433 3.85458,-5.63031 -0.55907,-0.90462 -3.28548,0.40519 -4.45636,2.14088 -1.26333,1.87275 -1.68457,4.04247 -0.78484,4.04247 0.16646,0 0.79038,-0.24884 1.38662,-0.55304 z m -36.69285,12.27393 c 0,-0.61865 -0.12243,-0.70607 -0.9885,-0.70607 -0.77027,0 -0.9885,0.11441 -0.9885,0.51777 0,0.71016 0.24251,0.89437 1.1768,0.89437 0.66525,0 0.8002,-0.1191 0.8002,-0.70607 z m -2.64212,-0.24917 c 0.0233,-0.0166 0.29121,-1.27232 0.5973,-2.78682 l 0.55642,-2.7537 h -4.3325 -4.33247 l 0.17446,0.9179 c 0.24119,1.26875 0.75009,2.19719 1.69258,3.08789 1.11742,1.05604 3.38994,1.90153 4.61471,1.7169 0.54367,-0.0821 1.00692,-0.16379 1.02946,-0.18214 z m 3.53721,-3.13986 c 0.27719,-1.08737 0.50708,-2.07236 0.5106,-2.18885 0.003,-0.11641 -0.42977,-0.21181 -0.96301,-0.21181 -1.03296,0 -0.99806,-0.0501 -1.57239,2.25943 -0.1738,0.69901 -0.38325,1.5017 -0.46537,1.78375 -0.12845,0.44111 -1.7e-4,0.50032 0.91831,0.42363 l 1.06765,-0.0891 z m -64.349991,-3.45978 c 3.187584,-4.77357 6.084389,-8.37077 10.479351,-13.01306 l 2.760767,-2.9161 -0.100236,-2.16764 c -0.124659,-2.69603 -1.048834,-4.7307 -3.15198,-6.93951 -1.450048,-1.52294 -1.480153,-1.53778 -2.806459,-1.38327 -1.297291,0.15111 -1.377831,0.1161 -2.488334,-1.0808 -1.950948,-2.10278 -2.569116,-3.37913 -2.470498,-5.10092 l 0.08603,-1.50222 1.129721,-0.14111 1.129725,-0.14109 v -4.14379 -4.14381 l 1.698604,-1.36576 c 0.934234,-0.75117 2.514977,-1.73212 3.512763,-2.17988 1.566006,-0.7028 2.260844,-0.83258 5.079748,-0.94876 3.01756,-0.12444 3.324154,-0.18949 4.037247,-0.855704 1.162524,-1.086378 1.770174,-2.964624 1.770174,-5.471548 0,-1.953837 -0.08306,-2.281922 -0.858834,-3.386503 -1.278277,-1.820408 -3.826893,-3.064225 -6.278669,-3.064225 -2.76992,0 -4.938907,0.707261 -6.498124,2.118936 -1.286975,1.16516 -1.311667,1.220165 -1.40722,3.134511 -0.111148,2.226648 0.489528,3.580444 1.811611,4.083113 1.563261,0.594342 4.617115,-1.779143 4.617115,-3.588516 0,-0.738815 -0.69104,-0.914011 -0.949427,-0.240508 -0.202116,0.526718 -1.027589,0.561417 -1.027589,0.04331 0,-0.771728 1.060801,-1.641279 1.886837,-1.546603 0.693415,0.07935 0.807422,0.225497 0.882728,1.130536 0.171092,2.056147 -2.101624,4.923364 -4.463396,5.630987 -0.984623,0.294882 -1.847273,0.253521 -5.595565,-0.269529 -6.950132,-0.969615 -8.919154,-0.830712 -10.609963,0.748579 -1.283518,1.198844 -1.857542,2.744484 -1.864591,5.020684 -0.0053,1.67966 0.134267,2.28358 0.865104,3.74611 1.229331,2.46012 2.86851,3.60406 6.125849,4.27514 0.974703,0.2008 1.695042,0.44238 1.600755,0.53683 -0.0943,0.0944 -0.949488,0.23517 -1.900447,0.31289 l -1.729009,0.14111 -0.40668,1.56616 c -0.372446,1.43431 -0.363476,1.66018 0.106545,2.68307 0.283745,0.61753 1.817326,2.39744 3.429855,3.98081 2.892994,2.84066 2.916625,2.87479 2.916625,4.21164 0,1.85633 -0.947483,3.359 -3.333548,5.28688 -2.16763,1.75136 -3.036193,3.14716 -2.62741,4.22234 0.141104,0.37111 0.936342,1.19379 1.767204,1.82812 2.655247,2.0272 2.781602,2.20237 2.781602,3.85622 0,0.81859 -0.158852,1.70071 -0.353038,1.96024 -0.61044,0.81598 -2.272638,1.89554 -2.918498,1.89554 -0.961157,0 -1.884659,-0.89317 -1.763248,-1.70534 0.103808,-0.69434 0.104545,-0.69414 0.524387,0.15178 0.521321,1.05063 1.344847,1.19703 2.338109,0.41571 1.205381,-0.94812 0.908927,-2.43279 -0.646367,-3.23708 -1.144549,-0.59187 -2.213728,-0.52636 -3.524293,0.21582 -1.692649,0.9587 -2.775421,2.68581 -2.916212,4.65159 -0.104043,1.45275 -9.51e-4,1.8484 0.97038,3.72413 0.901516,1.74089 1.299005,2.21032 2.331547,2.75371 0.684617,0.36025 1.657428,0.655 2.161806,0.655 0.869907,0 1.069777,-0.22882 3.887434,-4.44827 z m 4.144453,-9.97426 c 0,-0.32093 0.137902,-0.84109 0.306459,-1.15604 0.509956,-0.95286 0.09096,-1.79448 -1.178316,-2.36687 -2.485642,-1.12088 -2.44261,-2.78313 0.129529,-5.00376 0.918928,-0.79335 1.790402,-1.88536 2.236571,-2.80257 l 0.731003,-1.50278 0.01701,1.53357 c 0.01701,1.52549 0.0074,1.54287 -1.818693,3.29854 -1.009689,0.97068 -1.835798,1.9555 -1.835798,2.18844 0,0.61568 0.71901,1.23808 1.672162,1.44743 1.198373,0.26321 1.529442,0.80353 1.368306,2.23313 -0.197213,1.74955 -1.628317,3.62237 -1.628317,2.13091 z M 60.056208,108.5973 c -4.096354,-1.52869 -5.638956,-5.00819 -3.178193,-7.16879 2.187888,-1.920987 5.296637,-1.30153 5.68629,1.13304 0.216892,1.35526 -0.634132,2.29549 -1.961133,2.16666 -1.246106,-0.1211 -1.456657,-1.07576 -0.237242,-1.07576 0.607552,0 0.901173,-0.16445 1.032549,-0.57839 0.61295,-1.93127 -3.377643,-2.14552 -4.399458,-0.23618 -0.459648,0.85887 -0.0933,2.2974 0.803998,3.15706 0.428715,0.41075 1.666296,1.11026 2.750184,1.55447 1.083882,0.44422 1.942877,0.92476 1.908872,1.06787 -0.09894,0.41641 -1.262502,0.40677 -2.405883,-0.0199 z m 165.485752,42.88439 c 0.082,-0.21349 -0.003,-0.57095 -0.18848,-0.79449 -0.58222,-0.7015 -5.8678,-4.10422 -7.56498,-4.87013 -0.8923,-0.40265 -3.63126,-1.81212 -6.08655,-3.13213 -3.35866,-1.80564 -6.54106,-3.18532 -12.8506,-5.5712 -4.61254,-1.7442 -9.32485,-3.59291 -10.47183,-4.10826 l -2.08544,-0.93696 -0.51521,0.63625 c -1.07441,1.32684 -5.90507,9.05275 -5.90507,9.44424 0,0.22551 0.15879,0.54159 0.3531,0.70278 0.22449,0.18613 4.26444,0.3368 11.08542,0.41311 7.26173,0.0814 11.07246,0.22949 11.78426,0.45893 1.58267,0.50978 3.3378,1.97596 4.5681,3.81609 l 1.10122,1.64698 1.15824,-0.18847 c 3.50624,-0.57006 3.52669,-0.56755 7.375,0.90837 2.01758,0.77377 4.11316,1.5425 4.65684,1.70829 2.02199,0.61653 3.31654,0.56832 3.58587,-0.13343 z M 75.374512,150.39458 c 0.854365,-0.22916 1.946737,-0.41846 2.427492,-0.42031 0.504206,-0.002 1.084836,-0.23617 1.37198,-0.55344 0.300889,-0.33224 0.952337,-0.58393 1.645782,-0.63547 1.480726,-0.11008 1.610022,-0.57224 0.365603,-1.3065 -0.627096,-0.37 -1.05518,-0.87567 -1.165227,-1.37644 -0.335949,-1.52906 -0.351927,-1.54818 -1.002173,-1.20019 -0.897696,0.48042 -5.620811,5.15508 -5.620626,5.56293 1.99e-4,0.44156 0.0797,0.43874 1.977169,-0.0706 z m 81.904908,-3.09628 c 0,-0.38262 -0.26753,-1.36758 -0.59481,-2.18884 -0.82664,-2.07518 -0.63784,-5.50115 0.42262,-7.66868 0.40539,-0.82858 0.73706,-1.62343 0.73706,-1.76633 0,-0.14278 -0.63205,-0.76053 -1.40459,-1.37245 -0.77254,-0.61192 -1.46756,-1.27668 -1.54451,-1.47719 -0.077,-0.20048 -0.25719,-0.3646 -0.4006,-0.3646 -0.53308,0 -0.59663,1.46705 -0.18279,4.22188 0.23417,1.55935 0.4258,4.66828 0.4258,6.90875 0,4.40377 -0.0233,4.34076 1.62401,4.3808 0.79316,0.0199 0.91787,-0.0723 0.91787,-0.67334 z m -4.32814,-5.7297 c -0.0994,-3.51427 -0.35644,-7.10968 -0.60043,-8.40231 -0.59424,-3.14818 -0.57206,-3.81281 0.12743,-3.81281 0.31055,0 0.56486,0.17746 0.56486,0.39439 0,0.48619 1.40264,1.73642 3.69348,3.29206 1.88735,1.28169 1.90527,1.28315 5.05284,0.41239 2.06002,-0.56994 5.56426,-0.55525 6.9647,0.0301 1.32932,0.55472 4.60766,2.65153 6.25516,4.00072 0.66411,0.54391 1.24618,0.9392 1.29347,0.87842 0.44647,-0.57373 4.70098,-8.00424 4.70098,-8.21029 0,-0.51218 -24.3215,-12.20896 -28.39442,-13.65553 -1.87516,-0.66597 -3.48518,-0.4061 -5.80042,0.93633 -6.04501,3.50501 -12.69488,13.69521 -16.9203,25.92855 -0.59511,1.72295 -0.99851,3.26447 -0.89646,3.42569 0.16246,0.25654 10.76174,0.69235 21.33842,0.87728 l 2.79483,0.0491 z m -24.74737,1.88423 c 2.52077,-6.83532 5.31097,-12.94599 7.3407,-16.07639 4.01493,-6.19217 10.60439,-11.79104 14.50668,-12.32592 1.22826,-0.16845 1.40176,-0.31123 3.30957,-2.72658 6.67143,-8.44601 8.44954,-13.342281 8.53404,-23.499279 l 0.0447,-5.366163 -4.5463,-0.07739 -4.54633,-0.07738 -1.91516,5.30238 c -1.05335,2.916287 -2.33754,6.192011 -2.85371,7.279377 -1.27471,2.685188 -4.54872,7.752995 -6.56638,10.164035 -3.4622,4.13719 -3.62077,4.48069 -7.95475,17.23177 -1.21436,3.57272 -3.55435,10.27558 -5.20003,14.89522 -1.64565,4.61966 -2.99212,8.45491 -2.99212,8.52284 0,0.16345 0.9133,0.394 1.26697,0.31989 0.15311,-0.0334 0.86064,-1.63697 1.57218,-3.56645 z m -46.615911,1.15191 c 0,-0.41424 -0.188139,-0.56485 -0.706087,-0.56485 -0.819371,0 -0.924583,0.40951 -0.211823,0.82465 0.727237,0.4236 0.91791,0.36964 0.91791,-0.25986 z m 1.920519,0.22585 c 0.525921,-0.52593 0.401663,-0.83904 -0.29355,-0.73985 -0.347924,0.0496 -0.674999,0.31255 -0.726805,0.58452 -0.108079,0.56651 0.514515,0.66129 1.020455,0.15546 z m 2.287954,-2.03195 c 0.709192,-0.75493 0.498569,-1.07646 -0.466277,-0.71182 -0.371741,0.14042 -0.635469,0.47834 -0.635469,0.81412 0,0.75504 0.324574,0.72489 1.101746,-0.10243 z m 2.559691,-3.34837 c 0.01336,-0.25553 -0.623159,-0.27621 -1.237681,-0.0403 -0.448597,0.17213 -0.616722,1.25907 -0.251184,1.6245 0.191474,0.19148 1.468951,-1.16736 1.488933,-1.5841 z m 1.39473,-1.86768 c 0.611051,-0.85813 0.533495,-1.16843 -0.291882,-1.16843 -0.609584,0 -1.157856,0.91341 -0.920146,1.5329 0.247183,0.64414 0.561181,0.54974 1.212128,-0.36447 z m 2.17187,-2.89183 c 0.532894,-0.58879 0.531527,-0.59284 -0.165122,-0.49423 -0.392256,0.0555 -0.744017,0.31756 -0.796621,0.59364 -0.127427,0.66807 0.307895,0.62309 0.961776,-0.0994 z m 2.541876,-1.977 c 0.532894,-0.58884 0.531527,-0.59284 -0.165121,-0.49426 -0.392257,0.0555 -0.744015,0.31757 -0.79662,0.59367 -0.127429,0.66805 0.307893,0.62306 0.961776,-0.0994 z m 2.91015,-1.41548 c 0.978955,-0.34125 1.040067,-0.90469 0.113083,-1.04203 -0.638471,-0.0944 -1.59381,0.68714 -1.340556,1.09691 0.198481,0.32123 0.141438,0.32357 1.22754,-0.0548 z m 2.905571,-1.52246 c 0.17714,-0.38897 0.24185,-0.78747 0.14412,-0.88556 -0.27321,-0.27319 -1.608094,0.70304 -1.608094,1.17571 0,0.69929 1.113853,0.47857 1.464114,-0.29021 z m 1.49611,-1.54627 c 0.45216,-0.49966 0.45826,-0.57726 0.0574,-0.73111 -0.60619,-0.23249 -1.04046,0.0771 -1.04046,0.74187 0,0.70059 0.3428,0.69683 0.98318,-0.01 z m -15.482329,-2.05351 c 0.474617,-0.50484 1.373615,-1.61693 1.997774,-2.47127 0.624196,-0.85436 1.468185,-1.86149 1.875586,-2.23808 0.4074,-0.37656 0.740712,-0.78964 0.740712,-0.91791 0,-0.12844 -0.826108,-0.23318 -1.835822,-0.23318 -1.077161,0 -1.835787,-0.12074 -1.835787,-0.29221 0,-0.16079 -0.219162,-0.62686 -0.487061,-1.03569 l -0.487026,-0.74332 -0.190807,0.68264 c -0.105082,0.37548 -0.206486,1.19104 -0.225166,1.8124 -0.04302,1.41971 -0.918946,3.38594 -1.692518,3.79994 -0.840785,0.44996 -0.746917,1.47862 0.187806,2.05815 1.013249,0.62824 0.953671,0.64108 1.952443,-0.42131 z m 7.682906,-10.16751 c 0.634401,-1.74756 1.909408,-5.36972 2.833359,-8.04928 l 1.679906,-4.87193 -1.319773,-0.006 c -1.048776,-0.003 -9.974599,1.28168 -12.970078,1.86864 -0.792618,0.15545 -0.84439,0.96109 -0.06171,0.96109 0.679201,0 1.048575,0.75008 0.593472,1.20518 -0.524854,0.52485 -0.36934,1.44698 0.527356,3.12739 0.753224,1.41146 0.847291,1.85826 0.847291,4.02362 0,2.54975 -0.04937,2.41819 1.709997,4.56501 0.189474,0.23115 1.103647,0.35303 2.648022,0.35303 H 92.82363 Z M 148.24165,65.928277 c 0,-0.300889 -5.16074,-12.001061 -5.25289,-11.908925 -0.1878,0.187804 -5.19706,11.581482 -5.19706,11.820694 0,0.136767 2.35123,0.248848 5.225,0.248848 2.87372,0 5.22495,-0.07239 5.22495,-0.160451 z m 15.05557,-3.072369 c 0.43607,-0.690242 1.55916,-1.964451 2.49574,-2.831558 l 1.70293,-1.576595 -0.62642,-1.192582 c -0.60811,-1.157788 -0.62086,-1.361572 -0.43652,-6.982422 0.10436,-3.184419 0.25252,-6.234669 0.32925,-6.778338 0.0767,-0.543669 0.0166,-1.1741 -0.13545,-1.400935 -0.40406,-0.605846 -1.10041,0.120423 -3.15052,3.284959 -2.37185,3.66137 -3.04863,5.273961 -3.67798,8.763904 l -0.54404,3.016928 1.48386,3.469561 c 0.81614,1.908243 1.54745,3.472365 1.6251,3.475801 0.0777,0.0033 0.498,-0.558512 0.93405,-1.248723 z M 102.2729,84.08625 c -2.34163,-0.890891 -3.903511,-2.92179 -3.657529,-4.755878 0.208154,-1.551447 1.122429,-2.647755 2.961419,-3.550788 1.34619,-0.661088 1.97209,-0.792417 3.73538,-0.783847 1.79551,0.01005 2.34731,0.135768 3.62178,0.832882 1.8074,0.988831 2.62558,2.054516 2.78767,3.630916 0.16345,1.588705 -0.61242,2.933898 -2.29727,3.983607 -1.16843,0.727937 -1.64171,0.842155 -3.78296,0.912773 -1.46434,0.04837 -2.8174,-0.06005 -3.36849,-0.269531 z m 81.13979,-0.08974 c -2.19095,-0.802091 -3.70201,-2.841496 -3.45727,-4.666212 0.19984,-1.490733 1.03568,-2.539875 2.79261,-3.505686 1.309,-0.719632 1.79589,-0.826578 3.76296,-0.826578 1.96713,0 2.45402,0.107078 3.76302,0.826578 1.76304,0.969181 2.5927,2.015253 2.79506,3.524201 0.26387,1.96852 -1.4845,4.129982 -3.9018,4.823261 -1.3807,0.395959 -4.44909,0.302223 -5.75458,-0.175462 z M 35.834214,80.958974 v -2.358107 l 2.953201,-0.167124 c 3.238525,-0.183469 3.999341,-0.443728 4.403518,-1.506812 0.401617,-1.056314 0.353151,-24.748107 -0.05243,-25.638296 -0.446285,-0.979491 -1.591364,-1.298293 -4.663323,-1.298293 h -2.640947 v -2.541876 -2.541877 l 15.039434,7.02e-4 c 15.078157,6.99e-4 20.592059,0.218827 25.065714,0.991597 10.363285,1.790156 16.533708,6.345485 18.206208,13.440824 0.55074,2.336393 0.549074,7.215093 -0.0033,9.558559 -0.959375,4.070304 -3.631248,7.68117 -7.308163,9.876558 -3.510825,2.096181 -8.941835,3.624476 -15.090506,4.246501 -1.675002,0.16946 -9.972288,0.295886 -19.417112,0.295886 H 35.834224 Z M 66.47795,78.244538 C 74.016089,77.353946 77.07897,73.908135 77.543113,65.795979 77.940707,58.847049 76.168632,53.813365 72.657326,51.917665 70.06259,50.516798 68.526649,50.216942 63.159387,50.063497 l -5.013146,-0.14344 v 14.109485 c 0,7.760229 0.08473,14.194246 0.188273,14.297789 0.278172,0.278206 5.540558,0.224499 8.143424,-0.08306 z m 134.01337,2.714436 v -2.358107 l 2.89501,-0.163789 c 3.19125,-0.180799 4.24836,-0.465042 4.61467,-1.241083 0.29022,-0.614986 0.51982,-22.18071 0.25853,-24.303376 -0.30856,-2.50942 -0.66756,-2.737788 -4.49308,-2.859211 l -3.27526,-0.104076 v -1.649685 -1.649684 l -0.96765,0.404298 c -0.53222,0.222498 -1.69317,0.489594 -2.57986,0.593804 -1.31521,0.154448 -1.58819,0.11642 -1.48176,-0.206818 0.0753,-0.229503 0.597,-0.430952 1.23831,-0.47852 1.91352,-0.141771 3.79096,-0.881718 3.79096,-1.493936 0,-0.407969 0.19949,-0.542168 0.80633,-0.542168 0.93679,0 2.9707,-2.00011 4.5271,-4.451886 0.80534,-1.268605 4.55166,-9.347835 4.55166,-9.816013 0,-0.08773 -0.48869,0.353893 -1.08599,0.98179 -0.81604,0.8578 -1.30503,1.141609 -1.96708,1.141609 -1.82379,0 -1.90851,-2.146684 -0.23419,-5.933013 0.12477,-0.282209 -0.0267,-0.520217 -0.45113,-0.706088 -0.35166,-0.154113 -0.67996,-0.566418 -0.7296,-0.915942 -0.12943,-0.910807 -0.76066,-0.78358 -1.42208,0.286544 -0.6352,1.027793 -2.01806,5.546195 -2.01806,6.593902 0,0.41127 -0.16546,0.674498 -0.42365,0.674498 -0.50998,0 -0.51048,-0.04737 -0.0334,-3.224783 l 0.37864,-2.518692 -1.44386,1.556851 c -0.79408,0.856265 -1.97939,2.148519 -2.63397,2.871719 -1.28722,1.42215 -2.21865,1.678573 -3.05587,0.841355 -1.1127,-1.112723 0.35661,-6.820803 1.88019,-7.304359 0.81548,-0.258859 1.0249,0.0914 0.34109,0.570454 -1.33019,0.931688 -2.48137,5.165313 -1.69101,6.218924 0.42334,0.564384 0.42438,0.564384 1.22243,-0.01334 1.25129,-0.904669 2.48434,-3.623477 2.4892,-5.488587 0.003,-1.350063 -0.0687,-1.559717 -0.53762,-1.560751 -0.29789,-6.69e-4 -0.59774,-0.169459 -0.66624,-0.374777 -0.088,-0.264195 0.11109,-0.346556 0.68085,-0.281208 1.16045,0.133098 1.68287,1.330683 1.30356,2.98834 l -0.28654,1.251758 1.24739,-1.224205 c 0.68605,-0.67333 1.34642,-1.606552 1.46751,-2.073863 0.25919,-1.000106 0.79082,-0.887823 0.6573,0.138767 -0.0844,0.648047 -0.0133,0.614922 0.86742,-0.402628 1.07757,-1.245422 1.62748,-1.237714 2.24774,0.03002 0.46964,0.960942 1.16042,0.923382 2.26624,-0.123424 1.05959,-1.002908 2.36584,-0.983393 3.18794,0.0477 l 0.6196,0.777009 0.5828,-0.800026 c 1.17623,-1.614758 0.96337,-0.300556 -0.43033,2.656728 -0.78751,1.670934 -1.89989,4.181923 -2.47201,5.579954 -1.65479,4.043619 -3.95289,8.326313 -5.49377,10.238125 l -1.4227,1.76517 h 23.29936 23.29939 v 7.908072 7.908072 h -3.34504 -3.34502 l -0.47719,-2.428593 c -0.78515,-3.99605 -2.10626,-5.99626 -4.72532,-7.154381 -1.8872,-0.834484 -4.55362,-1.137474 -10.0664,-1.143812 l -4.87193,-0.0066 v 5.548263 5.54823 l 1.86864,-0.174462 c 1.0278,-0.09607 2.33049,-0.400329 2.89496,-0.676299 1.27345,-0.622726 2.29714,-2.509186 2.29714,-4.233259 v -1.211083 h 3.24797 3.24796 v 8.755364 8.75533 h -3.20845 -3.20845 l -0.15844,-1.534098 c -0.34029,-3.296968 -1.7576,-4.625817 -5.06919,-4.75271 l -1.77106,-0.06806 -0.0768,5.398152 c -0.0693,4.884841 -0.0268,5.459031 0.44193,6.038492 0.60968,0.75289 2.27098,1.089905 5.49506,1.11469 l 2.18885,0.01668 v 2.400673 2.400638 h -15.39247 -15.3925 z m 8.30954,-49.971161 c 0.63354,-0.66509 1.64401,-2.012053 2.24546,-2.993244 l 1.09353,-1.783984 -0.55701,-0.748952 c -0.30622,-0.411905 -0.83774,-0.790517 -1.18084,-0.841355 -1.40143,-0.20782 -3.69719,3.597622 -3.69719,6.128224 0,1.854736 0.50261,1.912113 2.09605,0.239178 z M 60.212141,39.126921 c -1.845252,-0.802525 -2.218775,-3.009354 -0.952203,-5.625754 0.7957,-1.643711 3.535827,-4.6078 5.528041,-5.979881 1.026702,-0.707121 1.743764,-1.451739 2.01666,-2.094146 1.531566,-3.605395 4.393886,-13.507239 5.991513,-20.7269363 l 0.553619,-2.501814 -0.894035,0.1684574 c -1.546071,0.291216 -6.459665,2.9053124 -8.519663,4.5323803 -2.610359,2.0617892 -2.965522,2.2708769 -2.965522,1.7459225 0,-0.5050398 3.849252,-3.4416741 6.328806,-4.8283321 C 68.298915,3.2578391 70.111679,2.4385335 71.327723,1.9961743 73.038016,1.3740145 73.559155,1.056914 73.628966,0.5959404 73.678612,0.2680312 73.909574,0 74.142255,0 c 0.280675,0 0.368092,0.17312814 0.25976,0.51441321 -0.151346,0.47685181 0.01469,0.50503989 2.274878,0.38641848 4.270287,-0.22416518 7.767336,1.03139491 10.408887,3.73702601 3.769381,3.8608507 4.838638,10.0397133 2.77338,16.0264993 -2.927895,8.487334 -13.026484,16.533073 -23.194246,18.479277 -2.604108,0.498436 -5.2843,0.491496 -6.452787,-0.01668 z M 67.974679,38.08552 C 76.845965,35.944271 85.348776,29.295863 88.639972,21.927156 92.753911,12.716388 88.685344,3.2462306 79.943285,1.6839434 78.605931,1.4447663 77.391835,1.4144108 76.063688,1.5858665 L 74.130601,1.8357174 73.106554,6.3545871 C 71.733503,12.413594 70.597278,16.535305 68.917578,21.55034 c -0.770181,2.299499 -1.316439,4.136888 -1.213903,4.083083 4.293857,-2.253298 12.189742,-4.793808 12.189742,-3.922065 0,0.163122 -0.540167,0.432653 -1.200355,0.599243 -3.224447,0.813601 -6.257753,1.865878 -8.778093,3.045249 l -2.776461,1.299192 -1.244858,2.663901 c -2.009778,4.300808 -4.793387,8.185677 -5.417824,7.56125 -0.07228,-0.07239 0.373849,-0.74255 0.991428,-1.4894 1.593716,-1.92739 4.559134,-7.269867 4.22223,-7.606784 -0.04907,-0.04904 -0.816617,0.51071 -1.705635,1.243985 -2.888339,2.382327 -4.731814,5.161778 -4.759615,7.176233 -0.03719,2.694356 2.828838,3.310478 8.750445,1.881188 z M 181.0036,36.696127 c 0,-0.166457 1.2498,-2.104454 2.77733,-4.30708 1.52749,-2.202593 3.06298,-4.481341 3.41218,-5.063872 l 0.6349,-1.059115 h -2.7061 c -1.48841,0 -2.70613,-0.113084 -2.70613,-0.251519 0,-0.138437 1.37628,-0.341452 3.05839,-0.451368 l 3.0584,-0.199813 2.29939,-3.855714 c 4.14703,-6.953833 6.35636,-11.719619 7.26104,-15.6629972 0.52314,-2.2802835 0.34432,-3.5765745 -0.61796,-4.4791737 -0.62958,-0.59053607 -0.94554,-0.65444952 -3.02571,-0.61221837 -7.22266,0.14677397 -15.55624,4.19823277 -18.62094,9.05301757 -2.1011,3.3283547 -2.4345,7.7372107 -0.88699,11.7290927 0.12942,0.333947 0.0563,0.494231 -0.22517,0.494231 -0.2682,0 -0.57203,-0.578058 -0.8531,-1.623965 -1.47429,-5.485883 -0.38341,-9.616466 3.55525,-13.461839 3.33464,-3.2556704 7.34864,-5.246541 12.83035,-6.3636323 6.83629,-1.39316158 9.19866,-0.27653757 8.74358,4.1327174 -0.34548,3.3474726 -3.32504,10.1252429 -7.52041,17.1072649 -1.0975,1.826481 -1.99551,3.383365 -1.99551,3.459756 0,0.07638 0.51261,0.138768 1.13915,0.138768 0.9253,0 1.32471,-0.185471 2.12763,-0.988496 0.5437,-0.54367 1.17494,-0.988498 1.40277,-0.988498 0.79679,0 0.40456,1.110853 -0.70787,2.004814 -0.67363,0.541334 -1.30975,1.393228 -1.59172,2.13154 -0.2602,0.681337 -0.65498,1.22981 -0.88517,1.22981 -0.22849,0 -0.34989,-0.158786 -0.26953,-0.35303 0.0801,-0.194143 0.34967,-0.829644 0.59885,-1.412142 l 0.4531,-1.059115 h -1.40626 -1.40629 l -3.39446,5.013136 c -1.86696,2.757234 -3.56931,5.235564 -3.78303,5.507399 -0.44,0.559713 -0.74992,0.639038 -0.74992,0.191807 z m -75.97386,-2.056986 c 0,-0.07639 0.36087,-0.499968 0.8019,-0.940995 0.74449,-0.744481 1.75263,-2.95458 2.19325,-4.808083 0.13943,-0.587266 -0.1888,-0.28421 -1.28879,1.188812 -1.57843,2.113961 -2.16151,2.683113 -2.74883,2.683113 -0.55382,0 -0.44448,-1.257994 0.34232,-3.939542 0.86298,-2.94097 0.9065,-3.96853 0.16813,-3.96853 -1.06582,0 -3.54379,3.46556 -4.69524,6.566516 -0.273868,0.737844 -0.607948,1.341556 -0.742179,1.341556 -0.349525,0 -0.303224,-0.562547 0.176463,-2.143948 0.602013,-1.9845 0.551702,-2.018957 -0.677535,-0.463843 -1.411474,1.785652 -2.521794,2.654894 -3.256904,2.54975 -1.006476,-0.144107 -0.865072,-2.96519 0.300889,-6.003767 0.114084,-0.296886 -0.0033,-0.43412 -0.372008,-0.43412 -0.678,0 -1.216431,-0.52502 -1.216431,-1.18621 0,-0.814534 -0.752289,-0.587533 -1.371112,0.41374 -0.635203,1.027791 -2.018057,5.546195 -2.018057,6.593901 0,0.42498 -0.164122,0.674497 -0.443962,0.674497 -0.371608,0 -0.412737,-0.241511 -0.252518,-1.48276 0.514613,-3.983208 1.143843,-7.119458 1.402434,-6.990161 0.155447,0.07773 0.241179,0.458938 0.190475,0.847292 -0.0844,0.648044 -0.01335,0.614922 0.86744,-0.402631 1.005142,-1.161723 1.739917,-1.245453 2.098949,-0.239177 0.345756,0.968916 0.681503,1.212863 1.250356,0.908438 0.294552,-0.15745 0.535196,-0.465111 0.535196,-0.683471 0,-0.414974 0.509342,-0.862502 0.730205,-0.64164 0.07039,0.07039 -0.244847,1.267534 -0.699949,2.660563 -0.990732,3.031805 -1.336687,5.033751 -0.914908,5.294444 0.678067,0.419076 4.442614,-4.356251 5.579816,-7.078027 0.61639,-1.475156 1.08694,-0.832615 0.53529,0.730906 -0.57779,1.637576 -0.56434,1.645548 0.48877,0.290881 2.75159,-3.539812 4.41712,-1.948771 3.05215,2.915619 -1.02999,3.670777 -0.72612,3.566768 2.18221,-0.746817 1.83595,-2.723077 2.00212,-3.109797 3.29479,-7.668996 2.44105,-8.609123 4.37818,-13.1365646 6.40364,-14.9664489 1.04188,-0.9412953 2.22489,-1.3179734 2.22489,-0.7084571 0,0.1554483 -0.21017,0.2825417 -0.46739,0.2825417 -1.15762,0 -3.14061,2.967425 -4.81278,7.2019843 -0.6158,1.559418 -3.70274,11.600832 -4.16621,13.552072 l -0.20016,0.842658 0.61351,-0.779944 c 0.63419,-0.806228 2.4807,-1.893899 3.21529,-1.893899 0.55288,0 0.82067,0.467179 0.53746,0.937726 -0.12509,0.207488 -1.27563,1.295823 -2.5572,2.418453 -2.02283,1.772007 -2.33004,2.162296 -2.33004,2.960085 0,0.50544 0.16812,1.148848 0.37351,1.429788 0.34408,0.470515 0.43943,0.47672 1.20922,0.07873 1.09836,-0.567954 3.21982,-2.855209 4.49002,-4.840841 0.55869,-0.873345 1.13952,-1.511384 1.29079,-1.417913 0.63614,0.393188 -2.66787,4.95409 -4.60581,6.357928 -1.5007,1.087101 -2.45597,1.025789 -3.04015,-0.195145 l -0.42363,-0.885421 -0.98853,1.873951 c -0.71176,1.349296 -1.1664,1.899202 -1.62397,1.964183 -0.34948,0.0497 -0.63548,0.02669 -0.63548,-0.04904 z m 6.63713,-8.519323 c 0.77668,-0.689843 1.26556,-1.256894 1.08644,-1.260097 -0.17913,-0.0032 -0.94169,0.561081 -1.69459,1.253925 -1.78114,1.639145 -1.23656,1.644649 0.60815,0.0066 z m 17.62618,5.868433 c -0.56374,-1.482795 0.58681,-5.00873 2.24361,-6.87571 1.31953,-1.486965 2.57274,-1.644813 3.59768,-0.453201 l 0.64244,0.746851 0.56078,-0.769868 c 0.96569,-1.325647 0.93669,-0.535763 -0.0934,2.542277 -1.50141,4.486948 -1.27711,6.013873 0.58507,3.982874 1.34859,-1.470819 2.59579,-3.459987 3.3814,-5.392915 0.3598,-0.885253 0.78882,-1.654421 0.95337,-1.709261 0.40397,-0.134767 0.37703,0.220497 -0.12445,1.641912 -0.58605,1.661093 -0.54611,1.690015 0.45449,0.329242 1.5336,-2.085372 3.41615,-2.560891 3.76909,-0.952034 0.0935,0.425179 -0.099,1.765736 -0.43394,3.02333 -0.98404,3.696663 -0.98901,3.732623 -0.45482,3.291297 0.25319,-0.209155 1.33949,-1.670733 2.41401,-3.24793 2.12824,-3.123941 2.63078,-3.673614 3.7464,-4.097761 0.54801,-0.208486 0.947,-0.172793 1.54504,0.137436 0.73138,0.379413 0.83976,0.372441 1.16709,-0.07505 0.19849,-0.271536 0.36084,-0.669829 0.36084,-0.885422 0,-0.885989 3.01203,-8.364276 4.74543,-11.782065 2.01353,-3.9699985 4.42271,-6.9233119 5.64775,-6.9233119 0.34187,0 0.62161,0.1270934 0.62161,0.2825417 0,0.1554481 -0.18614,0.2825416 -0.41383,0.2825416 -2.97545,0 -10.5571,16.4879736 -11.30804,24.5919576 -0.33258,3.587848 0.74934,3.159132 3.45622,-1.369679 1.59993,-2.676842 1.91017,-3.063095 2.14931,-2.676108 0.19748,0.319236 -3.08705,5.745676 -3.93223,6.496596 -0.39344,0.349492 -0.94684,0.635469 -1.22981,0.635469 -0.97706,0 -1.22868,-0.717463 -1.09024,-3.108662 0.072,-1.241649 0.0974,-2.257534 0.0571,-2.257534 -0.0407,0 -0.48926,0.726169 -0.99707,1.613726 -2.37542,4.151799 -4.30989,4.914429 -4.53556,1.788021 l -0.09,-1.247256 -1.20946,1.605854 c -2.10281,2.791959 -2.77418,2.000276 -1.65716,-1.954176 0.41161,-1.457245 0.7484,-3.031706 0.7484,-3.498785 0,-2.121333 -2.31519,-0.09907 -4.20282,3.67091 -0.58366,1.165728 -1.13583,2.404876 -1.22707,2.753701 -0.18013,0.688208 -0.78356,0.877781 -0.78356,0.24618 0,-0.213489 0.1938,-0.944263 0.43071,-1.623964 l 0.43072,-1.235847 -1.48985,1.653923 c -1.18823,1.319105 -1.63276,1.633572 -2.1959,1.55338 -0.62435,-0.08906 -0.716,-0.25519 -0.79189,-1.435161 -0.047,-0.734043 0.0381,-1.782548 0.18914,-2.330053 0.15111,-0.547505 0.22616,-0.995468 0.16678,-0.995468 -0.0593,0 -0.61419,0.745517 -1.23294,1.65669 -2.05822,3.030836 -3.94694,4.010627 -4.57038,2.370917 z m 2.73659,-1.250722 c 1.10886,-1.192514 3.22018,-4.18876 3.22018,-4.569842 0,-0.500935 -1.20536,-1.596212 -1.75663,-1.596212 -1.18373,0 -3.18694,3.135014 -3.51019,5.493456 -0.32758,2.390599 0.26754,2.586142 2.04664,0.672598 z m 17.98215,-1.00908 c 2.2047,-3.361349 2.60598,-4.22472 2.19429,-4.720785 -1.31438,-1.583736 -4.12271,1.602317 -4.67835,5.307519 -0.3823,2.549214 0.57558,2.322981 2.48406,-0.586734 z m 62.88168,2.422355 c -0.76255,-1.424884 0.362,-5.215517 2.10273,-7.087933 1.44169,-1.550746 3.28827,-1.576897 3.28827,-0.04636 0,1.722303 -2.63478,5.067007 -4.24527,5.389111 -0.93346,0.186806 -1.12657,0.918545 -0.40127,1.52049 1.38739,1.151415 6.41131,-3.877564 7.74435,-7.752158 l 0.54337,-1.579299 h -1.25573 c -1.69536,0 -1.59614,-0.500269 0.14511,-0.731241 l 1.40074,-0.185802 0.61632,-1.871549 c 1.22716,-3.726519 3.97439,-10.4856755 4.26181,-10.4856755 0.42781,0 0.19714,0.7402125 -1.88567,6.0537365 -1.03115,2.63051 -1.94643,5.140595 -2.03389,5.577985 -0.14944,0.747618 -0.11041,0.786313 0.65296,0.646009 0.94799,-0.174127 2.42467,0.186139 2.5718,0.627398 0.0697,0.20882 -0.48327,0.259191 -1.7393,0.15845 -2.15318,-0.172793 -2.00051,-0.372774 -3.15455,4.130383 -1.66254,6.487223 -0.0522,7.318304 3.15439,1.627902 0.6878,-1.220601 1.25056,-2.332689 1.25056,-2.471259 0,-0.317233 0.48311,-0.330243 0.67579,-0.02001 0.24185,0.391189 -2.59262,5.213149 -3.63958,6.191873 -1.96212,1.834186 -3.10587,0.810864 -2.69279,-2.409213 0.10404,-0.810799 0.11641,-1.467117 0.0266,-1.458443 -0.0887,0.01005 -0.69336,0.690409 -1.34378,1.515017 -2.22124,2.815981 -5.2477,4.147597 -6.0442,2.659365 z m 3.25175,-4.242131 c 2.03557,-2.37809 1.78528,-4.428771 -0.3239,-2.653993 -0.82936,0.697848 -2.33818,3.439605 -2.33818,4.248838 0,0.40413 0.0814,0.406633 0.81895,0.02669 0.45043,-0.23284 1.27981,-0.961944 1.84313,-1.620029 z M 97.121669,22.476795 c 0,-0.245848 0.201147,-0.447197 0.447196,-0.447197 0.245849,0 0.396861,0.150779 0.335383,0.335415 -0.174464,0.523685 -0.782579,0.61055 -0.782579,0.111748 z"
       id="path1" /></g></svg>
